G04 #@! TF.GenerationSoftware,KiCad,Pcbnew,(5.1.5)-3*
G04 #@! TF.CreationDate,2020-05-05T14:29:05+09:00*
G04 #@! TF.ProjectId,kt_sound_prototypeiface,6b745f73-6f75-46e6-945f-70726f746f74,rev?*
G04 #@! TF.SameCoordinates,Original*
G04 #@! TF.FileFunction,Soldermask,Bot*
G04 #@! TF.FilePolarity,Negative*
%FSLAX46Y46*%
G04 Gerber Fmt 4.6, Leading zero omitted, Abs format (unit mm)*
G04 Created by KiCad (PCBNEW (5.1.5)-3) date 2020-05-05 14:29:05*
%MOMM*%
%LPD*%
G04 APERTURE LIST*
%ADD10C,0.100000*%
G04 APERTURE END LIST*
D10*
G36*
X128987500Y-147847000D02*
G01*
X124885500Y-147847000D01*
X124885500Y-143745000D01*
X128987500Y-143745000D01*
X128987500Y-147847000D01*
G37*
G36*
X191154000Y-147783500D02*
G01*
X187052000Y-147783500D01*
X187052000Y-143681500D01*
X191154000Y-143681500D01*
X191154000Y-147783500D01*
G37*
G36*
X125625072Y-137808918D02*
G01*
X125870939Y-137910759D01*
X126092212Y-138058610D01*
X126280390Y-138246788D01*
X126428241Y-138468061D01*
X126530082Y-138713928D01*
X126582000Y-138974938D01*
X126582000Y-139241062D01*
X126530082Y-139502072D01*
X126428241Y-139747939D01*
X126280390Y-139969212D01*
X126092212Y-140157390D01*
X125870939Y-140305241D01*
X125870938Y-140305242D01*
X125870937Y-140305242D01*
X125625072Y-140407082D01*
X125364063Y-140459000D01*
X125097937Y-140459000D01*
X124836928Y-140407082D01*
X124591063Y-140305242D01*
X124591062Y-140305242D01*
X124591061Y-140305241D01*
X124369788Y-140157390D01*
X124181610Y-139969212D01*
X124033759Y-139747939D01*
X123931918Y-139502072D01*
X123880000Y-139241062D01*
X123880000Y-138974938D01*
X123931918Y-138713928D01*
X124033759Y-138468061D01*
X124181610Y-138246788D01*
X124369788Y-138058610D01*
X124591061Y-137910759D01*
X124836928Y-137808918D01*
X125097937Y-137757000D01*
X125364063Y-137757000D01*
X125625072Y-137808918D01*
G37*
G36*
X199016085Y-133488802D02*
G01*
X199165910Y-133518604D01*
X199448174Y-133635521D01*
X199702205Y-133805259D01*
X199918241Y-134021295D01*
X200087979Y-134275326D01*
X200198050Y-134541063D01*
X200204896Y-134557591D01*
X200253527Y-134802072D01*
X200264500Y-134857240D01*
X200264500Y-135162760D01*
X200204896Y-135462410D01*
X200087979Y-135744674D01*
X199918241Y-135998705D01*
X199702205Y-136214741D01*
X199448174Y-136384479D01*
X199165910Y-136501396D01*
X199016085Y-136531198D01*
X198866261Y-136561000D01*
X198560739Y-136561000D01*
X198410915Y-136531198D01*
X198261090Y-136501396D01*
X197978826Y-136384479D01*
X197724795Y-136214741D01*
X197508759Y-135998705D01*
X197339021Y-135744674D01*
X197222104Y-135462410D01*
X197162500Y-135162760D01*
X197162500Y-134857240D01*
X197173474Y-134802072D01*
X197222104Y-134557591D01*
X197228950Y-134541063D01*
X197339021Y-134275326D01*
X197508759Y-134021295D01*
X197724795Y-133805259D01*
X197978826Y-133635521D01*
X198261090Y-133518604D01*
X198410915Y-133488802D01*
X198560739Y-133459000D01*
X198866261Y-133459000D01*
X199016085Y-133488802D01*
G37*
G36*
X122625072Y-133108918D02*
G01*
X122870939Y-133210759D01*
X122959983Y-133270257D01*
X123092211Y-133358609D01*
X123280391Y-133546789D01*
X123428242Y-133768063D01*
X123530082Y-134013928D01*
X123582000Y-134274937D01*
X123582000Y-134541063D01*
X123530082Y-134802072D01*
X123428242Y-135047937D01*
X123280391Y-135269211D01*
X123092211Y-135457391D01*
X122982328Y-135530813D01*
X122870939Y-135605241D01*
X122870938Y-135605242D01*
X122870937Y-135605242D01*
X122625072Y-135707082D01*
X122364063Y-135759000D01*
X122097937Y-135759000D01*
X121836928Y-135707082D01*
X121591063Y-135605242D01*
X121591062Y-135605242D01*
X121591061Y-135605241D01*
X121479672Y-135530813D01*
X121369789Y-135457391D01*
X121181609Y-135269211D01*
X121033758Y-135047937D01*
X120931918Y-134802072D01*
X120880000Y-134541063D01*
X120880000Y-134274937D01*
X120931918Y-134013928D01*
X121033758Y-133768063D01*
X121181609Y-133546789D01*
X121369789Y-133358609D01*
X121502017Y-133270257D01*
X121591061Y-133210759D01*
X121836928Y-133108918D01*
X122097937Y-133057000D01*
X122364063Y-133057000D01*
X122625072Y-133108918D01*
G37*
G36*
X129582000Y-135759000D02*
G01*
X126880000Y-135759000D01*
X126880000Y-133057000D01*
X129582000Y-133057000D01*
X129582000Y-135759000D01*
G37*
G36*
X193854555Y-129130171D02*
G01*
X193973757Y-129179546D01*
X193973759Y-129179547D01*
X194081038Y-129251228D01*
X194172272Y-129342462D01*
X194243953Y-129449741D01*
X194243954Y-129449743D01*
X194293329Y-129568945D01*
X194318500Y-129695487D01*
X194318500Y-129824513D01*
X194305827Y-129888226D01*
X194303425Y-129912613D01*
X194305827Y-129936999D01*
X194312940Y-129960448D01*
X194324491Y-129982058D01*
X194340037Y-130001000D01*
X194358979Y-130016545D01*
X194380589Y-130028096D01*
X194404038Y-130035209D01*
X194428425Y-130037611D01*
X194452811Y-130035209D01*
X194476260Y-130028096D01*
X194497866Y-130016547D01*
X194553241Y-129979547D01*
X194553243Y-129979546D01*
X194672445Y-129930171D01*
X194798987Y-129905000D01*
X194928013Y-129905000D01*
X195054555Y-129930171D01*
X195173757Y-129979546D01*
X195173759Y-129979547D01*
X195281038Y-130051228D01*
X195372272Y-130142462D01*
X195443953Y-130249741D01*
X195443954Y-130249743D01*
X195493329Y-130368945D01*
X195518500Y-130495487D01*
X195518500Y-130624513D01*
X195493329Y-130751055D01*
X195458471Y-130835209D01*
X195443953Y-130870259D01*
X195372272Y-130977538D01*
X195281038Y-131068772D01*
X195173759Y-131140453D01*
X195173758Y-131140454D01*
X195173757Y-131140454D01*
X195054555Y-131189829D01*
X194928013Y-131215000D01*
X194798987Y-131215000D01*
X194672445Y-131189829D01*
X194553243Y-131140454D01*
X194553242Y-131140454D01*
X194553241Y-131140453D01*
X194497866Y-131103453D01*
X194476259Y-131091904D01*
X194452810Y-131084791D01*
X194428424Y-131082389D01*
X194404038Y-131084791D01*
X194380589Y-131091904D01*
X194358978Y-131103455D01*
X194340036Y-131119000D01*
X194324491Y-131137942D01*
X194312940Y-131159553D01*
X194305827Y-131183002D01*
X194303425Y-131207388D01*
X194305827Y-131231774D01*
X194318500Y-131295487D01*
X194318500Y-131424513D01*
X194305827Y-131488226D01*
X194303425Y-131512613D01*
X194305827Y-131536999D01*
X194312940Y-131560448D01*
X194324491Y-131582058D01*
X194340037Y-131601000D01*
X194358979Y-131616545D01*
X194380589Y-131628096D01*
X194404038Y-131635209D01*
X194428425Y-131637611D01*
X194452811Y-131635209D01*
X194476260Y-131628096D01*
X194497866Y-131616547D01*
X194553241Y-131579547D01*
X194553243Y-131579546D01*
X194672445Y-131530171D01*
X194798987Y-131505000D01*
X194928013Y-131505000D01*
X195054555Y-131530171D01*
X195173757Y-131579546D01*
X195173759Y-131579547D01*
X195281038Y-131651228D01*
X195372272Y-131742462D01*
X195443953Y-131849741D01*
X195443954Y-131849743D01*
X195493329Y-131968945D01*
X195518500Y-132095487D01*
X195518500Y-132224513D01*
X195493329Y-132351055D01*
X195458471Y-132435209D01*
X195443953Y-132470259D01*
X195372272Y-132577538D01*
X195281038Y-132668772D01*
X195173759Y-132740453D01*
X195173758Y-132740454D01*
X195173757Y-132740454D01*
X195054555Y-132789829D01*
X194928013Y-132815000D01*
X194798987Y-132815000D01*
X194672445Y-132789829D01*
X194553243Y-132740454D01*
X194553242Y-132740454D01*
X194553241Y-132740453D01*
X194497866Y-132703453D01*
X194476259Y-132691904D01*
X194452810Y-132684791D01*
X194428424Y-132682389D01*
X194404038Y-132684791D01*
X194380589Y-132691904D01*
X194358978Y-132703455D01*
X194340036Y-132719000D01*
X194324491Y-132737942D01*
X194312940Y-132759553D01*
X194305827Y-132783002D01*
X194303425Y-132807388D01*
X194305827Y-132831774D01*
X194318500Y-132895487D01*
X194318500Y-133024513D01*
X194293329Y-133151055D01*
X194243954Y-133270257D01*
X194243953Y-133270259D01*
X194172272Y-133377538D01*
X194081038Y-133468772D01*
X193973759Y-133540453D01*
X193973758Y-133540454D01*
X193973757Y-133540454D01*
X193854555Y-133589829D01*
X193728013Y-133615000D01*
X193598987Y-133615000D01*
X193472445Y-133589829D01*
X193353243Y-133540454D01*
X193353242Y-133540454D01*
X193353241Y-133540453D01*
X193245962Y-133468772D01*
X193154728Y-133377538D01*
X193083047Y-133270259D01*
X193083046Y-133270257D01*
X193033671Y-133151055D01*
X193008500Y-133024513D01*
X193008500Y-132895487D01*
X193033671Y-132768945D01*
X193083046Y-132649743D01*
X193083047Y-132649741D01*
X193154728Y-132542462D01*
X193245962Y-132451228D01*
X193353241Y-132379547D01*
X193353243Y-132379546D01*
X193472445Y-132330171D01*
X193598987Y-132305000D01*
X193728013Y-132305000D01*
X193854555Y-132330171D01*
X193973757Y-132379546D01*
X193973759Y-132379547D01*
X194029134Y-132416547D01*
X194050741Y-132428096D01*
X194074190Y-132435209D01*
X194098576Y-132437611D01*
X194122962Y-132435209D01*
X194146411Y-132428096D01*
X194168022Y-132416545D01*
X194186964Y-132401000D01*
X194202509Y-132382058D01*
X194214060Y-132360447D01*
X194221173Y-132336998D01*
X194223575Y-132312612D01*
X194221173Y-132288226D01*
X194208500Y-132224513D01*
X194208500Y-132095487D01*
X194221173Y-132031774D01*
X194223575Y-132007387D01*
X194221173Y-131983001D01*
X194214060Y-131959552D01*
X194202509Y-131937942D01*
X194186963Y-131919000D01*
X194168021Y-131903455D01*
X194146411Y-131891904D01*
X194122962Y-131884791D01*
X194098575Y-131882389D01*
X194074189Y-131884791D01*
X194050740Y-131891904D01*
X194029134Y-131903453D01*
X193973759Y-131940453D01*
X193973758Y-131940454D01*
X193973757Y-131940454D01*
X193854555Y-131989829D01*
X193728013Y-132015000D01*
X193598987Y-132015000D01*
X193472445Y-131989829D01*
X193353243Y-131940454D01*
X193353242Y-131940454D01*
X193353241Y-131940453D01*
X193245962Y-131868772D01*
X193154728Y-131777538D01*
X193083047Y-131670259D01*
X193068529Y-131635209D01*
X193033671Y-131551055D01*
X193008500Y-131424513D01*
X193008500Y-131295487D01*
X193033671Y-131168945D01*
X193083046Y-131049743D01*
X193083047Y-131049741D01*
X193154728Y-130942462D01*
X193245962Y-130851228D01*
X193353241Y-130779547D01*
X193353243Y-130779546D01*
X193472445Y-130730171D01*
X193598987Y-130705000D01*
X193728013Y-130705000D01*
X193854555Y-130730171D01*
X193973757Y-130779546D01*
X193973759Y-130779547D01*
X194029134Y-130816547D01*
X194050741Y-130828096D01*
X194074190Y-130835209D01*
X194098576Y-130837611D01*
X194122962Y-130835209D01*
X194146411Y-130828096D01*
X194168022Y-130816545D01*
X194186964Y-130801000D01*
X194202509Y-130782058D01*
X194214060Y-130760447D01*
X194221173Y-130736998D01*
X194223575Y-130712612D01*
X194221173Y-130688226D01*
X194208500Y-130624513D01*
X194208500Y-130495487D01*
X194221173Y-130431774D01*
X194223575Y-130407387D01*
X194221173Y-130383001D01*
X194214060Y-130359552D01*
X194202509Y-130337942D01*
X194186963Y-130319000D01*
X194168021Y-130303455D01*
X194146411Y-130291904D01*
X194122962Y-130284791D01*
X194098575Y-130282389D01*
X194074189Y-130284791D01*
X194050740Y-130291904D01*
X194029134Y-130303453D01*
X193973759Y-130340453D01*
X193973758Y-130340454D01*
X193973757Y-130340454D01*
X193854555Y-130389829D01*
X193728013Y-130415000D01*
X193598987Y-130415000D01*
X193472445Y-130389829D01*
X193353243Y-130340454D01*
X193353242Y-130340454D01*
X193353241Y-130340453D01*
X193245962Y-130268772D01*
X193154728Y-130177538D01*
X193083047Y-130070259D01*
X193068529Y-130035209D01*
X193033671Y-129951055D01*
X193008500Y-129824513D01*
X193008500Y-129695487D01*
X193033671Y-129568945D01*
X193083046Y-129449743D01*
X193083047Y-129449741D01*
X193154728Y-129342462D01*
X193245962Y-129251228D01*
X193353241Y-129179547D01*
X193353243Y-129179546D01*
X193472445Y-129130171D01*
X193598987Y-129105000D01*
X193728013Y-129105000D01*
X193854555Y-129130171D01*
G37*
G36*
X199016085Y-126188802D02*
G01*
X199165910Y-126218604D01*
X199448174Y-126335521D01*
X199702205Y-126505259D01*
X199918241Y-126721295D01*
X200087979Y-126975326D01*
X200203766Y-127254863D01*
X200204896Y-127257591D01*
X200264500Y-127557239D01*
X200264500Y-127862761D01*
X200234698Y-128012585D01*
X200204896Y-128162410D01*
X200087979Y-128444674D01*
X199918241Y-128698705D01*
X199702205Y-128914741D01*
X199448174Y-129084479D01*
X199165910Y-129201396D01*
X199016085Y-129231198D01*
X198866261Y-129261000D01*
X198560739Y-129261000D01*
X198410915Y-129231198D01*
X198261090Y-129201396D01*
X197978826Y-129084479D01*
X197724795Y-128914741D01*
X197508759Y-128698705D01*
X197339021Y-128444674D01*
X197222104Y-128162410D01*
X197192302Y-128012585D01*
X197162500Y-127862761D01*
X197162500Y-127557239D01*
X197222104Y-127257591D01*
X197223234Y-127254863D01*
X197339021Y-126975326D01*
X197508759Y-126721295D01*
X197724795Y-126505259D01*
X197978826Y-126335521D01*
X198261090Y-126218604D01*
X198410915Y-126188802D01*
X198560739Y-126159000D01*
X198866261Y-126159000D01*
X199016085Y-126188802D01*
G37*
G36*
X176616487Y-126131996D02*
G01*
X176853253Y-126230068D01*
X176853255Y-126230069D01*
X177011075Y-126335521D01*
X177066339Y-126372447D01*
X177247553Y-126553661D01*
X177389932Y-126766747D01*
X177488004Y-127003513D01*
X177538000Y-127254861D01*
X177538000Y-127511139D01*
X177488004Y-127762487D01*
X177446469Y-127862760D01*
X177389931Y-127999255D01*
X177247553Y-128212339D01*
X177066339Y-128393553D01*
X176853255Y-128535931D01*
X176853254Y-128535932D01*
X176853253Y-128535932D01*
X176616487Y-128634004D01*
X176365139Y-128684000D01*
X176108861Y-128684000D01*
X175857513Y-128634004D01*
X175620747Y-128535932D01*
X175620746Y-128535932D01*
X175620745Y-128535931D01*
X175407661Y-128393553D01*
X175226447Y-128212339D01*
X175084069Y-127999255D01*
X175027531Y-127862760D01*
X174985996Y-127762487D01*
X174936000Y-127511139D01*
X174936000Y-127254861D01*
X174985996Y-127003513D01*
X175084068Y-126766747D01*
X175226447Y-126553661D01*
X175407661Y-126372447D01*
X175462925Y-126335521D01*
X175620745Y-126230069D01*
X175620747Y-126230068D01*
X175857513Y-126131996D01*
X176108861Y-126082000D01*
X176365139Y-126082000D01*
X176616487Y-126131996D01*
G37*
G36*
X145755487Y-126004996D02*
G01*
X145992253Y-126103068D01*
X145992255Y-126103069D01*
X146205339Y-126245447D01*
X146386553Y-126426661D01*
X146471412Y-126553661D01*
X146528932Y-126639747D01*
X146627004Y-126876513D01*
X146677000Y-127127861D01*
X146677000Y-127384139D01*
X146627004Y-127635487D01*
X146574398Y-127762488D01*
X146528931Y-127872255D01*
X146386553Y-128085339D01*
X146205339Y-128266553D01*
X145992255Y-128408931D01*
X145992254Y-128408932D01*
X145992253Y-128408932D01*
X145755487Y-128507004D01*
X145504139Y-128557000D01*
X145247861Y-128557000D01*
X144996513Y-128507004D01*
X144759747Y-128408932D01*
X144759746Y-128408932D01*
X144759745Y-128408931D01*
X144546661Y-128266553D01*
X144365447Y-128085339D01*
X144223069Y-127872255D01*
X144177602Y-127762488D01*
X144124996Y-127635487D01*
X144075000Y-127384139D01*
X144075000Y-127127861D01*
X144124996Y-126876513D01*
X144223068Y-126639747D01*
X144280589Y-126553661D01*
X144365447Y-126426661D01*
X144546661Y-126245447D01*
X144759745Y-126103069D01*
X144759747Y-126103068D01*
X144996513Y-126004996D01*
X145247861Y-125955000D01*
X145504139Y-125955000D01*
X145755487Y-126004996D01*
G37*
G36*
X161437487Y-126004996D02*
G01*
X161674253Y-126103068D01*
X161674255Y-126103069D01*
X161887339Y-126245447D01*
X162068553Y-126426661D01*
X162153412Y-126553661D01*
X162210932Y-126639747D01*
X162309004Y-126876513D01*
X162359000Y-127127861D01*
X162359000Y-127384139D01*
X162309004Y-127635487D01*
X162256398Y-127762488D01*
X162210931Y-127872255D01*
X162068553Y-128085339D01*
X161887339Y-128266553D01*
X161674255Y-128408931D01*
X161674254Y-128408932D01*
X161674253Y-128408932D01*
X161437487Y-128507004D01*
X161186139Y-128557000D01*
X160929861Y-128557000D01*
X160678513Y-128507004D01*
X160441747Y-128408932D01*
X160441746Y-128408932D01*
X160441745Y-128408931D01*
X160228661Y-128266553D01*
X160047447Y-128085339D01*
X159905069Y-127872255D01*
X159859602Y-127762488D01*
X159806996Y-127635487D01*
X159757000Y-127384139D01*
X159757000Y-127127861D01*
X159806996Y-126876513D01*
X159905068Y-126639747D01*
X159962589Y-126553661D01*
X160047447Y-126426661D01*
X160228661Y-126245447D01*
X160441745Y-126103069D01*
X160441747Y-126103068D01*
X160678513Y-126004996D01*
X160929861Y-125955000D01*
X161186139Y-125955000D01*
X161437487Y-126004996D01*
G37*
G36*
X176616487Y-121131996D02*
G01*
X176853253Y-121230068D01*
X176853255Y-121230069D01*
X177066339Y-121372447D01*
X177247553Y-121553661D01*
X177389932Y-121766747D01*
X177488004Y-122003513D01*
X177538000Y-122254861D01*
X177538000Y-122511139D01*
X177488004Y-122762487D01*
X177442537Y-122872253D01*
X177389931Y-122999255D01*
X177247553Y-123212339D01*
X177066339Y-123393553D01*
X176853255Y-123535931D01*
X176853254Y-123535932D01*
X176853253Y-123535932D01*
X176616487Y-123634004D01*
X176365139Y-123684000D01*
X176108861Y-123684000D01*
X175857513Y-123634004D01*
X175620747Y-123535932D01*
X175620746Y-123535932D01*
X175620745Y-123535931D01*
X175407661Y-123393553D01*
X175226447Y-123212339D01*
X175084069Y-122999255D01*
X175031463Y-122872253D01*
X174985996Y-122762487D01*
X174936000Y-122511139D01*
X174936000Y-122254861D01*
X174985996Y-122003513D01*
X175084068Y-121766747D01*
X175226447Y-121553661D01*
X175407661Y-121372447D01*
X175620745Y-121230069D01*
X175620747Y-121230068D01*
X175857513Y-121131996D01*
X176108861Y-121082000D01*
X176365139Y-121082000D01*
X176616487Y-121131996D01*
G37*
G36*
X145755487Y-121004996D02*
G01*
X145992253Y-121103068D01*
X145992255Y-121103069D01*
X146205339Y-121245447D01*
X146386553Y-121426661D01*
X146471412Y-121553661D01*
X146528932Y-121639747D01*
X146627004Y-121876513D01*
X146677000Y-122127861D01*
X146677000Y-122384139D01*
X146627004Y-122635487D01*
X146574398Y-122762488D01*
X146528931Y-122872255D01*
X146386553Y-123085339D01*
X146205339Y-123266553D01*
X145992255Y-123408931D01*
X145992254Y-123408932D01*
X145992253Y-123408932D01*
X145755487Y-123507004D01*
X145504139Y-123557000D01*
X145247861Y-123557000D01*
X144996513Y-123507004D01*
X144759747Y-123408932D01*
X144759746Y-123408932D01*
X144759745Y-123408931D01*
X144546661Y-123266553D01*
X144365447Y-123085339D01*
X144223069Y-122872255D01*
X144177602Y-122762488D01*
X144124996Y-122635487D01*
X144075000Y-122384139D01*
X144075000Y-122127861D01*
X144124996Y-121876513D01*
X144223068Y-121639747D01*
X144280589Y-121553661D01*
X144365447Y-121426661D01*
X144546661Y-121245447D01*
X144759745Y-121103069D01*
X144759747Y-121103068D01*
X144996513Y-121004996D01*
X145247861Y-120955000D01*
X145504139Y-120955000D01*
X145755487Y-121004996D01*
G37*
G36*
X161437487Y-121004996D02*
G01*
X161674253Y-121103068D01*
X161674255Y-121103069D01*
X161887339Y-121245447D01*
X162068553Y-121426661D01*
X162153412Y-121553661D01*
X162210932Y-121639747D01*
X162309004Y-121876513D01*
X162359000Y-122127861D01*
X162359000Y-122384139D01*
X162309004Y-122635487D01*
X162256398Y-122762488D01*
X162210931Y-122872255D01*
X162068553Y-123085339D01*
X161887339Y-123266553D01*
X161674255Y-123408931D01*
X161674254Y-123408932D01*
X161674253Y-123408932D01*
X161437487Y-123507004D01*
X161186139Y-123557000D01*
X160929861Y-123557000D01*
X160678513Y-123507004D01*
X160441747Y-123408932D01*
X160441746Y-123408932D01*
X160441745Y-123408931D01*
X160228661Y-123266553D01*
X160047447Y-123085339D01*
X159905069Y-122872255D01*
X159859602Y-122762488D01*
X159806996Y-122635487D01*
X159757000Y-122384139D01*
X159757000Y-122127861D01*
X159806996Y-121876513D01*
X159905068Y-121639747D01*
X159962589Y-121553661D01*
X160047447Y-121426661D01*
X160228661Y-121245447D01*
X160441745Y-121103069D01*
X160441747Y-121103068D01*
X160678513Y-121004996D01*
X160929861Y-120955000D01*
X161186139Y-120955000D01*
X161437487Y-121004996D01*
G37*
G36*
X188543642Y-112894781D02*
G01*
X188689414Y-112955162D01*
X188689416Y-112955163D01*
X188820608Y-113042822D01*
X188932178Y-113154392D01*
X189019837Y-113285584D01*
X189019838Y-113285586D01*
X189080219Y-113431358D01*
X189111000Y-113586107D01*
X189111000Y-113743893D01*
X189080219Y-113898642D01*
X189019838Y-114044414D01*
X189019837Y-114044416D01*
X188932178Y-114175608D01*
X188820608Y-114287178D01*
X188689416Y-114374837D01*
X188689415Y-114374838D01*
X188689414Y-114374838D01*
X188543642Y-114435219D01*
X188388893Y-114466000D01*
X188231107Y-114466000D01*
X188076358Y-114435219D01*
X187930586Y-114374838D01*
X187930585Y-114374838D01*
X187930584Y-114374837D01*
X187799392Y-114287178D01*
X187687822Y-114175608D01*
X187600163Y-114044416D01*
X187600162Y-114044414D01*
X187539781Y-113898642D01*
X187509000Y-113743893D01*
X187509000Y-113586107D01*
X187539781Y-113431358D01*
X187600162Y-113285586D01*
X187600163Y-113285584D01*
X187687822Y-113154392D01*
X187799392Y-113042822D01*
X187930584Y-112955163D01*
X187930586Y-112955162D01*
X188076358Y-112894781D01*
X188231107Y-112864000D01*
X188388893Y-112864000D01*
X188543642Y-112894781D01*
G37*
G36*
X191083642Y-112894781D02*
G01*
X191229414Y-112955162D01*
X191229416Y-112955163D01*
X191360608Y-113042822D01*
X191472178Y-113154392D01*
X191559837Y-113285584D01*
X191559838Y-113285586D01*
X191620219Y-113431358D01*
X191651000Y-113586107D01*
X191651000Y-113743893D01*
X191620219Y-113898642D01*
X191559838Y-114044414D01*
X191559837Y-114044416D01*
X191472178Y-114175608D01*
X191360608Y-114287178D01*
X191229416Y-114374837D01*
X191229415Y-114374838D01*
X191229414Y-114374838D01*
X191083642Y-114435219D01*
X190928893Y-114466000D01*
X190771107Y-114466000D01*
X190616358Y-114435219D01*
X190470586Y-114374838D01*
X190470585Y-114374838D01*
X190470584Y-114374837D01*
X190339392Y-114287178D01*
X190227822Y-114175608D01*
X190140163Y-114044416D01*
X190140162Y-114044414D01*
X190079781Y-113898642D01*
X190049000Y-113743893D01*
X190049000Y-113586107D01*
X190079781Y-113431358D01*
X190140162Y-113285586D01*
X190140163Y-113285584D01*
X190227822Y-113154392D01*
X190339392Y-113042822D01*
X190470584Y-112955163D01*
X190470586Y-112955162D01*
X190616358Y-112894781D01*
X190771107Y-112864000D01*
X190928893Y-112864000D01*
X191083642Y-112894781D01*
G37*
G36*
X128083642Y-112894781D02*
G01*
X128229414Y-112955162D01*
X128229416Y-112955163D01*
X128360608Y-113042822D01*
X128472178Y-113154392D01*
X128559837Y-113285584D01*
X128559838Y-113285586D01*
X128620219Y-113431358D01*
X128651000Y-113586107D01*
X128651000Y-113743893D01*
X128620219Y-113898642D01*
X128559838Y-114044414D01*
X128559837Y-114044416D01*
X128472178Y-114175608D01*
X128360608Y-114287178D01*
X128229416Y-114374837D01*
X128229415Y-114374838D01*
X128229414Y-114374838D01*
X128083642Y-114435219D01*
X127928893Y-114466000D01*
X127771107Y-114466000D01*
X127616358Y-114435219D01*
X127470586Y-114374838D01*
X127470585Y-114374838D01*
X127470584Y-114374837D01*
X127339392Y-114287178D01*
X127227822Y-114175608D01*
X127140163Y-114044416D01*
X127140162Y-114044414D01*
X127079781Y-113898642D01*
X127049000Y-113743893D01*
X127049000Y-113586107D01*
X127079781Y-113431358D01*
X127140162Y-113285586D01*
X127140163Y-113285584D01*
X127227822Y-113154392D01*
X127339392Y-113042822D01*
X127470584Y-112955163D01*
X127470586Y-112955162D01*
X127616358Y-112894781D01*
X127771107Y-112864000D01*
X127928893Y-112864000D01*
X128083642Y-112894781D01*
G37*
G36*
X126111000Y-114466000D02*
G01*
X124509000Y-114466000D01*
X124509000Y-112864000D01*
X126111000Y-112864000D01*
X126111000Y-114466000D01*
G37*
G36*
X125543642Y-110354781D02*
G01*
X125689414Y-110415162D01*
X125689416Y-110415163D01*
X125820608Y-110502822D01*
X125932178Y-110614392D01*
X126019837Y-110745584D01*
X126019838Y-110745586D01*
X126080219Y-110891358D01*
X126111000Y-111046107D01*
X126111000Y-111203893D01*
X126080219Y-111358642D01*
X126019838Y-111504414D01*
X126019837Y-111504416D01*
X125932178Y-111635608D01*
X125820608Y-111747178D01*
X125689416Y-111834837D01*
X125689415Y-111834838D01*
X125689414Y-111834838D01*
X125543642Y-111895219D01*
X125388893Y-111926000D01*
X125231107Y-111926000D01*
X125076358Y-111895219D01*
X124930586Y-111834838D01*
X124930585Y-111834838D01*
X124930584Y-111834837D01*
X124799392Y-111747178D01*
X124687822Y-111635608D01*
X124600163Y-111504416D01*
X124600162Y-111504414D01*
X124539781Y-111358642D01*
X124509000Y-111203893D01*
X124509000Y-111046107D01*
X124539781Y-110891358D01*
X124600162Y-110745586D01*
X124600163Y-110745584D01*
X124687822Y-110614392D01*
X124799392Y-110502822D01*
X124930584Y-110415163D01*
X124930586Y-110415162D01*
X125076358Y-110354781D01*
X125231107Y-110324000D01*
X125388893Y-110324000D01*
X125543642Y-110354781D01*
G37*
G36*
X188543642Y-110354781D02*
G01*
X188689414Y-110415162D01*
X188689416Y-110415163D01*
X188820608Y-110502822D01*
X188932178Y-110614392D01*
X189019837Y-110745584D01*
X189019838Y-110745586D01*
X189080219Y-110891358D01*
X189111000Y-111046107D01*
X189111000Y-111203893D01*
X189080219Y-111358642D01*
X189019838Y-111504414D01*
X189019837Y-111504416D01*
X188932178Y-111635608D01*
X188820608Y-111747178D01*
X188689416Y-111834837D01*
X188689415Y-111834838D01*
X188689414Y-111834838D01*
X188543642Y-111895219D01*
X188388893Y-111926000D01*
X188231107Y-111926000D01*
X188076358Y-111895219D01*
X187930586Y-111834838D01*
X187930585Y-111834838D01*
X187930584Y-111834837D01*
X187799392Y-111747178D01*
X187687822Y-111635608D01*
X187600163Y-111504416D01*
X187600162Y-111504414D01*
X187539781Y-111358642D01*
X187509000Y-111203893D01*
X187509000Y-111046107D01*
X187539781Y-110891358D01*
X187600162Y-110745586D01*
X187600163Y-110745584D01*
X187687822Y-110614392D01*
X187799392Y-110502822D01*
X187930584Y-110415163D01*
X187930586Y-110415162D01*
X188076358Y-110354781D01*
X188231107Y-110324000D01*
X188388893Y-110324000D01*
X188543642Y-110354781D01*
G37*
G36*
X128083642Y-110354781D02*
G01*
X128229414Y-110415162D01*
X128229416Y-110415163D01*
X128360608Y-110502822D01*
X128472178Y-110614392D01*
X128559837Y-110745584D01*
X128559838Y-110745586D01*
X128620219Y-110891358D01*
X128651000Y-111046107D01*
X128651000Y-111203893D01*
X128620219Y-111358642D01*
X128559838Y-111504414D01*
X128559837Y-111504416D01*
X128472178Y-111635608D01*
X128360608Y-111747178D01*
X128229416Y-111834837D01*
X128229415Y-111834838D01*
X128229414Y-111834838D01*
X128083642Y-111895219D01*
X127928893Y-111926000D01*
X127771107Y-111926000D01*
X127616358Y-111895219D01*
X127470586Y-111834838D01*
X127470585Y-111834838D01*
X127470584Y-111834837D01*
X127339392Y-111747178D01*
X127227822Y-111635608D01*
X127140163Y-111504416D01*
X127140162Y-111504414D01*
X127079781Y-111358642D01*
X127049000Y-111203893D01*
X127049000Y-111046107D01*
X127079781Y-110891358D01*
X127140162Y-110745586D01*
X127140163Y-110745584D01*
X127227822Y-110614392D01*
X127339392Y-110502822D01*
X127470584Y-110415163D01*
X127470586Y-110415162D01*
X127616358Y-110354781D01*
X127771107Y-110324000D01*
X127928893Y-110324000D01*
X128083642Y-110354781D01*
G37*
G36*
X191083642Y-110354781D02*
G01*
X191229414Y-110415162D01*
X191229416Y-110415163D01*
X191360608Y-110502822D01*
X191472178Y-110614392D01*
X191559837Y-110745584D01*
X191559838Y-110745586D01*
X191620219Y-110891358D01*
X191651000Y-111046107D01*
X191651000Y-111203893D01*
X191620219Y-111358642D01*
X191559838Y-111504414D01*
X191559837Y-111504416D01*
X191472178Y-111635608D01*
X191360608Y-111747178D01*
X191229416Y-111834837D01*
X191229415Y-111834838D01*
X191229414Y-111834838D01*
X191083642Y-111895219D01*
X190928893Y-111926000D01*
X190771107Y-111926000D01*
X190616358Y-111895219D01*
X190470586Y-111834838D01*
X190470585Y-111834838D01*
X190470584Y-111834837D01*
X190339392Y-111747178D01*
X190227822Y-111635608D01*
X190140163Y-111504416D01*
X190140162Y-111504414D01*
X190079781Y-111358642D01*
X190049000Y-111203893D01*
X190049000Y-111046107D01*
X190079781Y-110891358D01*
X190140162Y-110745586D01*
X190140163Y-110745584D01*
X190227822Y-110614392D01*
X190339392Y-110502822D01*
X190470584Y-110415163D01*
X190470586Y-110415162D01*
X190616358Y-110354781D01*
X190771107Y-110324000D01*
X190928893Y-110324000D01*
X191083642Y-110354781D01*
G37*
G36*
X125543642Y-107814781D02*
G01*
X125689414Y-107875162D01*
X125689416Y-107875163D01*
X125820608Y-107962822D01*
X125932178Y-108074392D01*
X126019837Y-108205584D01*
X126019838Y-108205586D01*
X126080219Y-108351358D01*
X126111000Y-108506107D01*
X126111000Y-108663893D01*
X126080219Y-108818642D01*
X126019838Y-108964414D01*
X126019837Y-108964416D01*
X125932178Y-109095608D01*
X125820608Y-109207178D01*
X125689416Y-109294837D01*
X125689415Y-109294838D01*
X125689414Y-109294838D01*
X125543642Y-109355219D01*
X125388893Y-109386000D01*
X125231107Y-109386000D01*
X125076358Y-109355219D01*
X124930586Y-109294838D01*
X124930585Y-109294838D01*
X124930584Y-109294837D01*
X124799392Y-109207178D01*
X124687822Y-109095608D01*
X124600163Y-108964416D01*
X124600162Y-108964414D01*
X124539781Y-108818642D01*
X124509000Y-108663893D01*
X124509000Y-108506107D01*
X124539781Y-108351358D01*
X124600162Y-108205586D01*
X124600163Y-108205584D01*
X124687822Y-108074392D01*
X124799392Y-107962822D01*
X124930584Y-107875163D01*
X124930586Y-107875162D01*
X125076358Y-107814781D01*
X125231107Y-107784000D01*
X125388893Y-107784000D01*
X125543642Y-107814781D01*
G37*
G36*
X128083642Y-107814781D02*
G01*
X128229414Y-107875162D01*
X128229416Y-107875163D01*
X128360608Y-107962822D01*
X128472178Y-108074392D01*
X128559837Y-108205584D01*
X128559838Y-108205586D01*
X128620219Y-108351358D01*
X128651000Y-108506107D01*
X128651000Y-108663893D01*
X128620219Y-108818642D01*
X128559838Y-108964414D01*
X128559837Y-108964416D01*
X128472178Y-109095608D01*
X128360608Y-109207178D01*
X128229416Y-109294837D01*
X128229415Y-109294838D01*
X128229414Y-109294838D01*
X128083642Y-109355219D01*
X127928893Y-109386000D01*
X127771107Y-109386000D01*
X127616358Y-109355219D01*
X127470586Y-109294838D01*
X127470585Y-109294838D01*
X127470584Y-109294837D01*
X127339392Y-109207178D01*
X127227822Y-109095608D01*
X127140163Y-108964416D01*
X127140162Y-108964414D01*
X127079781Y-108818642D01*
X127049000Y-108663893D01*
X127049000Y-108506107D01*
X127079781Y-108351358D01*
X127140162Y-108205586D01*
X127140163Y-108205584D01*
X127227822Y-108074392D01*
X127339392Y-107962822D01*
X127470584Y-107875163D01*
X127470586Y-107875162D01*
X127616358Y-107814781D01*
X127771107Y-107784000D01*
X127928893Y-107784000D01*
X128083642Y-107814781D01*
G37*
G36*
X188543642Y-107814781D02*
G01*
X188689414Y-107875162D01*
X188689416Y-107875163D01*
X188820608Y-107962822D01*
X188932178Y-108074392D01*
X189019837Y-108205584D01*
X189019838Y-108205586D01*
X189080219Y-108351358D01*
X189111000Y-108506107D01*
X189111000Y-108663893D01*
X189080219Y-108818642D01*
X189019838Y-108964414D01*
X189019837Y-108964416D01*
X188932178Y-109095608D01*
X188820608Y-109207178D01*
X188689416Y-109294837D01*
X188689415Y-109294838D01*
X188689414Y-109294838D01*
X188543642Y-109355219D01*
X188388893Y-109386000D01*
X188231107Y-109386000D01*
X188076358Y-109355219D01*
X187930586Y-109294838D01*
X187930585Y-109294838D01*
X187930584Y-109294837D01*
X187799392Y-109207178D01*
X187687822Y-109095608D01*
X187600163Y-108964416D01*
X187600162Y-108964414D01*
X187539781Y-108818642D01*
X187509000Y-108663893D01*
X187509000Y-108506107D01*
X187539781Y-108351358D01*
X187600162Y-108205586D01*
X187600163Y-108205584D01*
X187687822Y-108074392D01*
X187799392Y-107962822D01*
X187930584Y-107875163D01*
X187930586Y-107875162D01*
X188076358Y-107814781D01*
X188231107Y-107784000D01*
X188388893Y-107784000D01*
X188543642Y-107814781D01*
G37*
G36*
X191083642Y-107814781D02*
G01*
X191229414Y-107875162D01*
X191229416Y-107875163D01*
X191360608Y-107962822D01*
X191472178Y-108074392D01*
X191559837Y-108205584D01*
X191559838Y-108205586D01*
X191620219Y-108351358D01*
X191651000Y-108506107D01*
X191651000Y-108663893D01*
X191620219Y-108818642D01*
X191559838Y-108964414D01*
X191559837Y-108964416D01*
X191472178Y-109095608D01*
X191360608Y-109207178D01*
X191229416Y-109294837D01*
X191229415Y-109294838D01*
X191229414Y-109294838D01*
X191083642Y-109355219D01*
X190928893Y-109386000D01*
X190771107Y-109386000D01*
X190616358Y-109355219D01*
X190470586Y-109294838D01*
X190470585Y-109294838D01*
X190470584Y-109294837D01*
X190339392Y-109207178D01*
X190227822Y-109095608D01*
X190140163Y-108964416D01*
X190140162Y-108964414D01*
X190079781Y-108818642D01*
X190049000Y-108663893D01*
X190049000Y-108506107D01*
X190079781Y-108351358D01*
X190140162Y-108205586D01*
X190140163Y-108205584D01*
X190227822Y-108074392D01*
X190339392Y-107962822D01*
X190470584Y-107875163D01*
X190470586Y-107875162D01*
X190616358Y-107814781D01*
X190771107Y-107784000D01*
X190928893Y-107784000D01*
X191083642Y-107814781D01*
G37*
G36*
X188543642Y-105274781D02*
G01*
X188689414Y-105335162D01*
X188689416Y-105335163D01*
X188820608Y-105422822D01*
X188932178Y-105534392D01*
X189019837Y-105665584D01*
X189019838Y-105665586D01*
X189080219Y-105811358D01*
X189111000Y-105966107D01*
X189111000Y-106123893D01*
X189080219Y-106278642D01*
X189019838Y-106424414D01*
X189019837Y-106424416D01*
X188932178Y-106555608D01*
X188820608Y-106667178D01*
X188689416Y-106754837D01*
X188689415Y-106754838D01*
X188689414Y-106754838D01*
X188543642Y-106815219D01*
X188388893Y-106846000D01*
X188231107Y-106846000D01*
X188076358Y-106815219D01*
X187930586Y-106754838D01*
X187930585Y-106754838D01*
X187930584Y-106754837D01*
X187799392Y-106667178D01*
X187687822Y-106555608D01*
X187600163Y-106424416D01*
X187600162Y-106424414D01*
X187539781Y-106278642D01*
X187509000Y-106123893D01*
X187509000Y-105966107D01*
X187539781Y-105811358D01*
X187600162Y-105665586D01*
X187600163Y-105665584D01*
X187687822Y-105534392D01*
X187799392Y-105422822D01*
X187930584Y-105335163D01*
X187930586Y-105335162D01*
X188076358Y-105274781D01*
X188231107Y-105244000D01*
X188388893Y-105244000D01*
X188543642Y-105274781D01*
G37*
G36*
X128083642Y-105274781D02*
G01*
X128229414Y-105335162D01*
X128229416Y-105335163D01*
X128360608Y-105422822D01*
X128472178Y-105534392D01*
X128559837Y-105665584D01*
X128559838Y-105665586D01*
X128620219Y-105811358D01*
X128651000Y-105966107D01*
X128651000Y-106123893D01*
X128620219Y-106278642D01*
X128559838Y-106424414D01*
X128559837Y-106424416D01*
X128472178Y-106555608D01*
X128360608Y-106667178D01*
X128229416Y-106754837D01*
X128229415Y-106754838D01*
X128229414Y-106754838D01*
X128083642Y-106815219D01*
X127928893Y-106846000D01*
X127771107Y-106846000D01*
X127616358Y-106815219D01*
X127470586Y-106754838D01*
X127470585Y-106754838D01*
X127470584Y-106754837D01*
X127339392Y-106667178D01*
X127227822Y-106555608D01*
X127140163Y-106424416D01*
X127140162Y-106424414D01*
X127079781Y-106278642D01*
X127049000Y-106123893D01*
X127049000Y-105966107D01*
X127079781Y-105811358D01*
X127140162Y-105665586D01*
X127140163Y-105665584D01*
X127227822Y-105534392D01*
X127339392Y-105422822D01*
X127470584Y-105335163D01*
X127470586Y-105335162D01*
X127616358Y-105274781D01*
X127771107Y-105244000D01*
X127928893Y-105244000D01*
X128083642Y-105274781D01*
G37*
G36*
X191083642Y-105274781D02*
G01*
X191229414Y-105335162D01*
X191229416Y-105335163D01*
X191360608Y-105422822D01*
X191472178Y-105534392D01*
X191559837Y-105665584D01*
X191559838Y-105665586D01*
X191620219Y-105811358D01*
X191651000Y-105966107D01*
X191651000Y-106123893D01*
X191620219Y-106278642D01*
X191559838Y-106424414D01*
X191559837Y-106424416D01*
X191472178Y-106555608D01*
X191360608Y-106667178D01*
X191229416Y-106754837D01*
X191229415Y-106754838D01*
X191229414Y-106754838D01*
X191083642Y-106815219D01*
X190928893Y-106846000D01*
X190771107Y-106846000D01*
X190616358Y-106815219D01*
X190470586Y-106754838D01*
X190470585Y-106754838D01*
X190470584Y-106754837D01*
X190339392Y-106667178D01*
X190227822Y-106555608D01*
X190140163Y-106424416D01*
X190140162Y-106424414D01*
X190079781Y-106278642D01*
X190049000Y-106123893D01*
X190049000Y-105966107D01*
X190079781Y-105811358D01*
X190140162Y-105665586D01*
X190140163Y-105665584D01*
X190227822Y-105534392D01*
X190339392Y-105422822D01*
X190470584Y-105335163D01*
X190470586Y-105335162D01*
X190616358Y-105274781D01*
X190771107Y-105244000D01*
X190928893Y-105244000D01*
X191083642Y-105274781D01*
G37*
G36*
X125543642Y-105274781D02*
G01*
X125689414Y-105335162D01*
X125689416Y-105335163D01*
X125820608Y-105422822D01*
X125932178Y-105534392D01*
X126019837Y-105665584D01*
X126019838Y-105665586D01*
X126080219Y-105811358D01*
X126111000Y-105966107D01*
X126111000Y-106123893D01*
X126080219Y-106278642D01*
X126019838Y-106424414D01*
X126019837Y-106424416D01*
X125932178Y-106555608D01*
X125820608Y-106667178D01*
X125689416Y-106754837D01*
X125689415Y-106754838D01*
X125689414Y-106754838D01*
X125543642Y-106815219D01*
X125388893Y-106846000D01*
X125231107Y-106846000D01*
X125076358Y-106815219D01*
X124930586Y-106754838D01*
X124930585Y-106754838D01*
X124930584Y-106754837D01*
X124799392Y-106667178D01*
X124687822Y-106555608D01*
X124600163Y-106424416D01*
X124600162Y-106424414D01*
X124539781Y-106278642D01*
X124509000Y-106123893D01*
X124509000Y-105966107D01*
X124539781Y-105811358D01*
X124600162Y-105665586D01*
X124600163Y-105665584D01*
X124687822Y-105534392D01*
X124799392Y-105422822D01*
X124930584Y-105335163D01*
X124930586Y-105335162D01*
X125076358Y-105274781D01*
X125231107Y-105244000D01*
X125388893Y-105244000D01*
X125543642Y-105274781D01*
G37*
G36*
X171804000Y-105715500D02*
G01*
X170002000Y-105715500D01*
X170002000Y-103913500D01*
X171804000Y-103913500D01*
X171804000Y-105715500D01*
G37*
G36*
X128083642Y-102734781D02*
G01*
X128229414Y-102795162D01*
X128229416Y-102795163D01*
X128360608Y-102882822D01*
X128472178Y-102994392D01*
X128524672Y-103072956D01*
X128559838Y-103125586D01*
X128620219Y-103271358D01*
X128651000Y-103426107D01*
X128651000Y-103583893D01*
X128620219Y-103738642D01*
X128559838Y-103884414D01*
X128559837Y-103884416D01*
X128472178Y-104015608D01*
X128360608Y-104127178D01*
X128229416Y-104214837D01*
X128229415Y-104214838D01*
X128229414Y-104214838D01*
X128083642Y-104275219D01*
X127928893Y-104306000D01*
X127771107Y-104306000D01*
X127616358Y-104275219D01*
X127470586Y-104214838D01*
X127470585Y-104214838D01*
X127470584Y-104214837D01*
X127339392Y-104127178D01*
X127227822Y-104015608D01*
X127140163Y-103884416D01*
X127140162Y-103884414D01*
X127079781Y-103738642D01*
X127049000Y-103583893D01*
X127049000Y-103426107D01*
X127079781Y-103271358D01*
X127140162Y-103125586D01*
X127175328Y-103072956D01*
X127227822Y-102994392D01*
X127339392Y-102882822D01*
X127470584Y-102795163D01*
X127470586Y-102795162D01*
X127616358Y-102734781D01*
X127771107Y-102704000D01*
X127928893Y-102704000D01*
X128083642Y-102734781D01*
G37*
G36*
X191083642Y-102734781D02*
G01*
X191229414Y-102795162D01*
X191229416Y-102795163D01*
X191360608Y-102882822D01*
X191472178Y-102994392D01*
X191524672Y-103072956D01*
X191559838Y-103125586D01*
X191620219Y-103271358D01*
X191651000Y-103426107D01*
X191651000Y-103583893D01*
X191620219Y-103738642D01*
X191559838Y-103884414D01*
X191559837Y-103884416D01*
X191472178Y-104015608D01*
X191360608Y-104127178D01*
X191229416Y-104214837D01*
X191229415Y-104214838D01*
X191229414Y-104214838D01*
X191083642Y-104275219D01*
X190928893Y-104306000D01*
X190771107Y-104306000D01*
X190616358Y-104275219D01*
X190470586Y-104214838D01*
X190470585Y-104214838D01*
X190470584Y-104214837D01*
X190339392Y-104127178D01*
X190227822Y-104015608D01*
X190140163Y-103884416D01*
X190140162Y-103884414D01*
X190079781Y-103738642D01*
X190049000Y-103583893D01*
X190049000Y-103426107D01*
X190079781Y-103271358D01*
X190140162Y-103125586D01*
X190175328Y-103072956D01*
X190227822Y-102994392D01*
X190339392Y-102882822D01*
X190470584Y-102795163D01*
X190470586Y-102795162D01*
X190616358Y-102734781D01*
X190771107Y-102704000D01*
X190928893Y-102704000D01*
X191083642Y-102734781D01*
G37*
G36*
X188543642Y-102734781D02*
G01*
X188689414Y-102795162D01*
X188689416Y-102795163D01*
X188820608Y-102882822D01*
X188932178Y-102994392D01*
X188984672Y-103072956D01*
X189019838Y-103125586D01*
X189080219Y-103271358D01*
X189111000Y-103426107D01*
X189111000Y-103583893D01*
X189080219Y-103738642D01*
X189019838Y-103884414D01*
X189019837Y-103884416D01*
X188932178Y-104015608D01*
X188820608Y-104127178D01*
X188689416Y-104214837D01*
X188689415Y-104214838D01*
X188689414Y-104214838D01*
X188543642Y-104275219D01*
X188388893Y-104306000D01*
X188231107Y-104306000D01*
X188076358Y-104275219D01*
X187930586Y-104214838D01*
X187930585Y-104214838D01*
X187930584Y-104214837D01*
X187799392Y-104127178D01*
X187687822Y-104015608D01*
X187600163Y-103884416D01*
X187600162Y-103884414D01*
X187539781Y-103738642D01*
X187509000Y-103583893D01*
X187509000Y-103426107D01*
X187539781Y-103271358D01*
X187600162Y-103125586D01*
X187635328Y-103072956D01*
X187687822Y-102994392D01*
X187799392Y-102882822D01*
X187930584Y-102795163D01*
X187930586Y-102795162D01*
X188076358Y-102734781D01*
X188231107Y-102704000D01*
X188388893Y-102704000D01*
X188543642Y-102734781D01*
G37*
G36*
X125543642Y-102734781D02*
G01*
X125689414Y-102795162D01*
X125689416Y-102795163D01*
X125820608Y-102882822D01*
X125932178Y-102994392D01*
X125984672Y-103072956D01*
X126019838Y-103125586D01*
X126080219Y-103271358D01*
X126111000Y-103426107D01*
X126111000Y-103583893D01*
X126080219Y-103738642D01*
X126019838Y-103884414D01*
X126019837Y-103884416D01*
X125932178Y-104015608D01*
X125820608Y-104127178D01*
X125689416Y-104214837D01*
X125689415Y-104214838D01*
X125689414Y-104214838D01*
X125543642Y-104275219D01*
X125388893Y-104306000D01*
X125231107Y-104306000D01*
X125076358Y-104275219D01*
X124930586Y-104214838D01*
X124930585Y-104214838D01*
X124930584Y-104214837D01*
X124799392Y-104127178D01*
X124687822Y-104015608D01*
X124600163Y-103884416D01*
X124600162Y-103884414D01*
X124539781Y-103738642D01*
X124509000Y-103583893D01*
X124509000Y-103426107D01*
X124539781Y-103271358D01*
X124600162Y-103125586D01*
X124635328Y-103072956D01*
X124687822Y-102994392D01*
X124799392Y-102882822D01*
X124930584Y-102795163D01*
X124930586Y-102795162D01*
X125076358Y-102734781D01*
X125231107Y-102704000D01*
X125388893Y-102704000D01*
X125543642Y-102734781D01*
G37*
G36*
X171016512Y-101378427D02*
G01*
X171165812Y-101408124D01*
X171329784Y-101476044D01*
X171477354Y-101574647D01*
X171602853Y-101700146D01*
X171701456Y-101847716D01*
X171769376Y-102011688D01*
X171804000Y-102185759D01*
X171804000Y-102363241D01*
X171769376Y-102537312D01*
X171701456Y-102701284D01*
X171602853Y-102848854D01*
X171477354Y-102974353D01*
X171329784Y-103072956D01*
X171165812Y-103140876D01*
X171016512Y-103170573D01*
X170991742Y-103175500D01*
X170814258Y-103175500D01*
X170789488Y-103170573D01*
X170640188Y-103140876D01*
X170476216Y-103072956D01*
X170328646Y-102974353D01*
X170203147Y-102848854D01*
X170104544Y-102701284D01*
X170036624Y-102537312D01*
X170002000Y-102363241D01*
X170002000Y-102185759D01*
X170036624Y-102011688D01*
X170104544Y-101847716D01*
X170203147Y-101700146D01*
X170328646Y-101574647D01*
X170476216Y-101476044D01*
X170640188Y-101408124D01*
X170789488Y-101378427D01*
X170814258Y-101373500D01*
X170991742Y-101373500D01*
X171016512Y-101378427D01*
G37*
G36*
X188543642Y-100194781D02*
G01*
X188689414Y-100255162D01*
X188689416Y-100255163D01*
X188820608Y-100342822D01*
X188932178Y-100454392D01*
X188984672Y-100532956D01*
X189019838Y-100585586D01*
X189080219Y-100731358D01*
X189111000Y-100886107D01*
X189111000Y-101043893D01*
X189080219Y-101198642D01*
X189019838Y-101344414D01*
X189019837Y-101344416D01*
X188932178Y-101475608D01*
X188820608Y-101587178D01*
X188689416Y-101674837D01*
X188689415Y-101674838D01*
X188689414Y-101674838D01*
X188543642Y-101735219D01*
X188388893Y-101766000D01*
X188231107Y-101766000D01*
X188076358Y-101735219D01*
X187930586Y-101674838D01*
X187930585Y-101674838D01*
X187930584Y-101674837D01*
X187799392Y-101587178D01*
X187687822Y-101475608D01*
X187600163Y-101344416D01*
X187600162Y-101344414D01*
X187539781Y-101198642D01*
X187509000Y-101043893D01*
X187509000Y-100886107D01*
X187539781Y-100731358D01*
X187600162Y-100585586D01*
X187635328Y-100532956D01*
X187687822Y-100454392D01*
X187799392Y-100342822D01*
X187930584Y-100255163D01*
X187930586Y-100255162D01*
X188076358Y-100194781D01*
X188231107Y-100164000D01*
X188388893Y-100164000D01*
X188543642Y-100194781D01*
G37*
G36*
X191083642Y-100194781D02*
G01*
X191229414Y-100255162D01*
X191229416Y-100255163D01*
X191360608Y-100342822D01*
X191472178Y-100454392D01*
X191524672Y-100532956D01*
X191559838Y-100585586D01*
X191620219Y-100731358D01*
X191651000Y-100886107D01*
X191651000Y-101043893D01*
X191620219Y-101198642D01*
X191559838Y-101344414D01*
X191559837Y-101344416D01*
X191472178Y-101475608D01*
X191360608Y-101587178D01*
X191229416Y-101674837D01*
X191229415Y-101674838D01*
X191229414Y-101674838D01*
X191083642Y-101735219D01*
X190928893Y-101766000D01*
X190771107Y-101766000D01*
X190616358Y-101735219D01*
X190470586Y-101674838D01*
X190470585Y-101674838D01*
X190470584Y-101674837D01*
X190339392Y-101587178D01*
X190227822Y-101475608D01*
X190140163Y-101344416D01*
X190140162Y-101344414D01*
X190079781Y-101198642D01*
X190049000Y-101043893D01*
X190049000Y-100886107D01*
X190079781Y-100731358D01*
X190140162Y-100585586D01*
X190175328Y-100532956D01*
X190227822Y-100454392D01*
X190339392Y-100342822D01*
X190470584Y-100255163D01*
X190470586Y-100255162D01*
X190616358Y-100194781D01*
X190771107Y-100164000D01*
X190928893Y-100164000D01*
X191083642Y-100194781D01*
G37*
G36*
X128083642Y-100194781D02*
G01*
X128229414Y-100255162D01*
X128229416Y-100255163D01*
X128360608Y-100342822D01*
X128472178Y-100454392D01*
X128524672Y-100532956D01*
X128559838Y-100585586D01*
X128620219Y-100731358D01*
X128651000Y-100886107D01*
X128651000Y-101043893D01*
X128620219Y-101198642D01*
X128559838Y-101344414D01*
X128559837Y-101344416D01*
X128472178Y-101475608D01*
X128360608Y-101587178D01*
X128229416Y-101674837D01*
X128229415Y-101674838D01*
X128229414Y-101674838D01*
X128083642Y-101735219D01*
X127928893Y-101766000D01*
X127771107Y-101766000D01*
X127616358Y-101735219D01*
X127470586Y-101674838D01*
X127470585Y-101674838D01*
X127470584Y-101674837D01*
X127339392Y-101587178D01*
X127227822Y-101475608D01*
X127140163Y-101344416D01*
X127140162Y-101344414D01*
X127079781Y-101198642D01*
X127049000Y-101043893D01*
X127049000Y-100886107D01*
X127079781Y-100731358D01*
X127140162Y-100585586D01*
X127175328Y-100532956D01*
X127227822Y-100454392D01*
X127339392Y-100342822D01*
X127470584Y-100255163D01*
X127470586Y-100255162D01*
X127616358Y-100194781D01*
X127771107Y-100164000D01*
X127928893Y-100164000D01*
X128083642Y-100194781D01*
G37*
G36*
X125543642Y-100194781D02*
G01*
X125689414Y-100255162D01*
X125689416Y-100255163D01*
X125820608Y-100342822D01*
X125932178Y-100454392D01*
X125984672Y-100532956D01*
X126019838Y-100585586D01*
X126080219Y-100731358D01*
X126111000Y-100886107D01*
X126111000Y-101043893D01*
X126080219Y-101198642D01*
X126019838Y-101344414D01*
X126019837Y-101344416D01*
X125932178Y-101475608D01*
X125820608Y-101587178D01*
X125689416Y-101674837D01*
X125689415Y-101674838D01*
X125689414Y-101674838D01*
X125543642Y-101735219D01*
X125388893Y-101766000D01*
X125231107Y-101766000D01*
X125076358Y-101735219D01*
X124930586Y-101674838D01*
X124930585Y-101674838D01*
X124930584Y-101674837D01*
X124799392Y-101587178D01*
X124687822Y-101475608D01*
X124600163Y-101344416D01*
X124600162Y-101344414D01*
X124539781Y-101198642D01*
X124509000Y-101043893D01*
X124509000Y-100886107D01*
X124539781Y-100731358D01*
X124600162Y-100585586D01*
X124635328Y-100532956D01*
X124687822Y-100454392D01*
X124799392Y-100342822D01*
X124930584Y-100255163D01*
X124930586Y-100255162D01*
X125076358Y-100194781D01*
X125231107Y-100164000D01*
X125388893Y-100164000D01*
X125543642Y-100194781D01*
G37*
G36*
X171016512Y-98838427D02*
G01*
X171165812Y-98868124D01*
X171329784Y-98936044D01*
X171477354Y-99034647D01*
X171602853Y-99160146D01*
X171701456Y-99307716D01*
X171769376Y-99471688D01*
X171804000Y-99645759D01*
X171804000Y-99823241D01*
X171769376Y-99997312D01*
X171701456Y-100161284D01*
X171602853Y-100308854D01*
X171477354Y-100434353D01*
X171329784Y-100532956D01*
X171165812Y-100600876D01*
X171016512Y-100630573D01*
X170991742Y-100635500D01*
X170814258Y-100635500D01*
X170789488Y-100630573D01*
X170640188Y-100600876D01*
X170476216Y-100532956D01*
X170328646Y-100434353D01*
X170203147Y-100308854D01*
X170104544Y-100161284D01*
X170036624Y-99997312D01*
X170002000Y-99823241D01*
X170002000Y-99645759D01*
X170036624Y-99471688D01*
X170104544Y-99307716D01*
X170203147Y-99160146D01*
X170328646Y-99034647D01*
X170476216Y-98936044D01*
X170640188Y-98868124D01*
X170789488Y-98838427D01*
X170814258Y-98833500D01*
X170991742Y-98833500D01*
X171016512Y-98838427D01*
G37*
G36*
X125543642Y-97654781D02*
G01*
X125689414Y-97715162D01*
X125689416Y-97715163D01*
X125820608Y-97802822D01*
X125932178Y-97914392D01*
X126019837Y-98045584D01*
X126019838Y-98045586D01*
X126080219Y-98191358D01*
X126111000Y-98346107D01*
X126111000Y-98503893D01*
X126080219Y-98658642D01*
X126019838Y-98804414D01*
X126019837Y-98804416D01*
X125932178Y-98935608D01*
X125820608Y-99047178D01*
X125689416Y-99134837D01*
X125689415Y-99134838D01*
X125689414Y-99134838D01*
X125543642Y-99195219D01*
X125388893Y-99226000D01*
X125231107Y-99226000D01*
X125076358Y-99195219D01*
X124930586Y-99134838D01*
X124930585Y-99134838D01*
X124930584Y-99134837D01*
X124799392Y-99047178D01*
X124687822Y-98935608D01*
X124600163Y-98804416D01*
X124600162Y-98804414D01*
X124539781Y-98658642D01*
X124509000Y-98503893D01*
X124509000Y-98346107D01*
X124539781Y-98191358D01*
X124600162Y-98045586D01*
X124600163Y-98045584D01*
X124687822Y-97914392D01*
X124799392Y-97802822D01*
X124930584Y-97715163D01*
X124930586Y-97715162D01*
X125076358Y-97654781D01*
X125231107Y-97624000D01*
X125388893Y-97624000D01*
X125543642Y-97654781D01*
G37*
G36*
X128083642Y-97654781D02*
G01*
X128229414Y-97715162D01*
X128229416Y-97715163D01*
X128360608Y-97802822D01*
X128472178Y-97914392D01*
X128559837Y-98045584D01*
X128559838Y-98045586D01*
X128620219Y-98191358D01*
X128651000Y-98346107D01*
X128651000Y-98503893D01*
X128620219Y-98658642D01*
X128559838Y-98804414D01*
X128559837Y-98804416D01*
X128472178Y-98935608D01*
X128360608Y-99047178D01*
X128229416Y-99134837D01*
X128229415Y-99134838D01*
X128229414Y-99134838D01*
X128083642Y-99195219D01*
X127928893Y-99226000D01*
X127771107Y-99226000D01*
X127616358Y-99195219D01*
X127470586Y-99134838D01*
X127470585Y-99134838D01*
X127470584Y-99134837D01*
X127339392Y-99047178D01*
X127227822Y-98935608D01*
X127140163Y-98804416D01*
X127140162Y-98804414D01*
X127079781Y-98658642D01*
X127049000Y-98503893D01*
X127049000Y-98346107D01*
X127079781Y-98191358D01*
X127140162Y-98045586D01*
X127140163Y-98045584D01*
X127227822Y-97914392D01*
X127339392Y-97802822D01*
X127470584Y-97715163D01*
X127470586Y-97715162D01*
X127616358Y-97654781D01*
X127771107Y-97624000D01*
X127928893Y-97624000D01*
X128083642Y-97654781D01*
G37*
G36*
X191083642Y-97654781D02*
G01*
X191229414Y-97715162D01*
X191229416Y-97715163D01*
X191360608Y-97802822D01*
X191472178Y-97914392D01*
X191559837Y-98045584D01*
X191559838Y-98045586D01*
X191620219Y-98191358D01*
X191651000Y-98346107D01*
X191651000Y-98503893D01*
X191620219Y-98658642D01*
X191559838Y-98804414D01*
X191559837Y-98804416D01*
X191472178Y-98935608D01*
X191360608Y-99047178D01*
X191229416Y-99134837D01*
X191229415Y-99134838D01*
X191229414Y-99134838D01*
X191083642Y-99195219D01*
X190928893Y-99226000D01*
X190771107Y-99226000D01*
X190616358Y-99195219D01*
X190470586Y-99134838D01*
X190470585Y-99134838D01*
X190470584Y-99134837D01*
X190339392Y-99047178D01*
X190227822Y-98935608D01*
X190140163Y-98804416D01*
X190140162Y-98804414D01*
X190079781Y-98658642D01*
X190049000Y-98503893D01*
X190049000Y-98346107D01*
X190079781Y-98191358D01*
X190140162Y-98045586D01*
X190140163Y-98045584D01*
X190227822Y-97914392D01*
X190339392Y-97802822D01*
X190470584Y-97715163D01*
X190470586Y-97715162D01*
X190616358Y-97654781D01*
X190771107Y-97624000D01*
X190928893Y-97624000D01*
X191083642Y-97654781D01*
G37*
G36*
X188543642Y-97654781D02*
G01*
X188689414Y-97715162D01*
X188689416Y-97715163D01*
X188820608Y-97802822D01*
X188932178Y-97914392D01*
X189019837Y-98045584D01*
X189019838Y-98045586D01*
X189080219Y-98191358D01*
X189111000Y-98346107D01*
X189111000Y-98503893D01*
X189080219Y-98658642D01*
X189019838Y-98804414D01*
X189019837Y-98804416D01*
X188932178Y-98935608D01*
X188820608Y-99047178D01*
X188689416Y-99134837D01*
X188689415Y-99134838D01*
X188689414Y-99134838D01*
X188543642Y-99195219D01*
X188388893Y-99226000D01*
X188231107Y-99226000D01*
X188076358Y-99195219D01*
X187930586Y-99134838D01*
X187930585Y-99134838D01*
X187930584Y-99134837D01*
X187799392Y-99047178D01*
X187687822Y-98935608D01*
X187600163Y-98804416D01*
X187600162Y-98804414D01*
X187539781Y-98658642D01*
X187509000Y-98503893D01*
X187509000Y-98346107D01*
X187539781Y-98191358D01*
X187600162Y-98045586D01*
X187600163Y-98045584D01*
X187687822Y-97914392D01*
X187799392Y-97802822D01*
X187930584Y-97715163D01*
X187930586Y-97715162D01*
X188076358Y-97654781D01*
X188231107Y-97624000D01*
X188388893Y-97624000D01*
X188543642Y-97654781D01*
G37*
G36*
X125543642Y-95114781D02*
G01*
X125689414Y-95175162D01*
X125689416Y-95175163D01*
X125820608Y-95262822D01*
X125932178Y-95374392D01*
X126019837Y-95505584D01*
X126019838Y-95505586D01*
X126080219Y-95651358D01*
X126111000Y-95806107D01*
X126111000Y-95963893D01*
X126080219Y-96118642D01*
X126019838Y-96264414D01*
X126019837Y-96264416D01*
X125932178Y-96395608D01*
X125820608Y-96507178D01*
X125689416Y-96594837D01*
X125689415Y-96594838D01*
X125689414Y-96594838D01*
X125543642Y-96655219D01*
X125388893Y-96686000D01*
X125231107Y-96686000D01*
X125076358Y-96655219D01*
X124930586Y-96594838D01*
X124930585Y-96594838D01*
X124930584Y-96594837D01*
X124799392Y-96507178D01*
X124687822Y-96395608D01*
X124600163Y-96264416D01*
X124600162Y-96264414D01*
X124539781Y-96118642D01*
X124509000Y-95963893D01*
X124509000Y-95806107D01*
X124539781Y-95651358D01*
X124600162Y-95505586D01*
X124600163Y-95505584D01*
X124687822Y-95374392D01*
X124799392Y-95262822D01*
X124930584Y-95175163D01*
X124930586Y-95175162D01*
X125076358Y-95114781D01*
X125231107Y-95084000D01*
X125388893Y-95084000D01*
X125543642Y-95114781D01*
G37*
G36*
X188543642Y-95114781D02*
G01*
X188689414Y-95175162D01*
X188689416Y-95175163D01*
X188820608Y-95262822D01*
X188932178Y-95374392D01*
X189019837Y-95505584D01*
X189019838Y-95505586D01*
X189080219Y-95651358D01*
X189111000Y-95806107D01*
X189111000Y-95963893D01*
X189080219Y-96118642D01*
X189019838Y-96264414D01*
X189019837Y-96264416D01*
X188932178Y-96395608D01*
X188820608Y-96507178D01*
X188689416Y-96594837D01*
X188689415Y-96594838D01*
X188689414Y-96594838D01*
X188543642Y-96655219D01*
X188388893Y-96686000D01*
X188231107Y-96686000D01*
X188076358Y-96655219D01*
X187930586Y-96594838D01*
X187930585Y-96594838D01*
X187930584Y-96594837D01*
X187799392Y-96507178D01*
X187687822Y-96395608D01*
X187600163Y-96264416D01*
X187600162Y-96264414D01*
X187539781Y-96118642D01*
X187509000Y-95963893D01*
X187509000Y-95806107D01*
X187539781Y-95651358D01*
X187600162Y-95505586D01*
X187600163Y-95505584D01*
X187687822Y-95374392D01*
X187799392Y-95262822D01*
X187930584Y-95175163D01*
X187930586Y-95175162D01*
X188076358Y-95114781D01*
X188231107Y-95084000D01*
X188388893Y-95084000D01*
X188543642Y-95114781D01*
G37*
G36*
X128083642Y-95114781D02*
G01*
X128229414Y-95175162D01*
X128229416Y-95175163D01*
X128360608Y-95262822D01*
X128472178Y-95374392D01*
X128559837Y-95505584D01*
X128559838Y-95505586D01*
X128620219Y-95651358D01*
X128651000Y-95806107D01*
X128651000Y-95963893D01*
X128620219Y-96118642D01*
X128559838Y-96264414D01*
X128559837Y-96264416D01*
X128472178Y-96395608D01*
X128360608Y-96507178D01*
X128229416Y-96594837D01*
X128229415Y-96594838D01*
X128229414Y-96594838D01*
X128083642Y-96655219D01*
X127928893Y-96686000D01*
X127771107Y-96686000D01*
X127616358Y-96655219D01*
X127470586Y-96594838D01*
X127470585Y-96594838D01*
X127470584Y-96594837D01*
X127339392Y-96507178D01*
X127227822Y-96395608D01*
X127140163Y-96264416D01*
X127140162Y-96264414D01*
X127079781Y-96118642D01*
X127049000Y-95963893D01*
X127049000Y-95806107D01*
X127079781Y-95651358D01*
X127140162Y-95505586D01*
X127140163Y-95505584D01*
X127227822Y-95374392D01*
X127339392Y-95262822D01*
X127470584Y-95175163D01*
X127470586Y-95175162D01*
X127616358Y-95114781D01*
X127771107Y-95084000D01*
X127928893Y-95084000D01*
X128083642Y-95114781D01*
G37*
G36*
X191083642Y-95114781D02*
G01*
X191229414Y-95175162D01*
X191229416Y-95175163D01*
X191360608Y-95262822D01*
X191472178Y-95374392D01*
X191559837Y-95505584D01*
X191559838Y-95505586D01*
X191620219Y-95651358D01*
X191651000Y-95806107D01*
X191651000Y-95963893D01*
X191620219Y-96118642D01*
X191559838Y-96264414D01*
X191559837Y-96264416D01*
X191472178Y-96395608D01*
X191360608Y-96507178D01*
X191229416Y-96594837D01*
X191229415Y-96594838D01*
X191229414Y-96594838D01*
X191083642Y-96655219D01*
X190928893Y-96686000D01*
X190771107Y-96686000D01*
X190616358Y-96655219D01*
X190470586Y-96594838D01*
X190470585Y-96594838D01*
X190470584Y-96594837D01*
X190339392Y-96507178D01*
X190227822Y-96395608D01*
X190140163Y-96264416D01*
X190140162Y-96264414D01*
X190079781Y-96118642D01*
X190049000Y-95963893D01*
X190049000Y-95806107D01*
X190079781Y-95651358D01*
X190140162Y-95505586D01*
X190140163Y-95505584D01*
X190227822Y-95374392D01*
X190339392Y-95262822D01*
X190470584Y-95175163D01*
X190470586Y-95175162D01*
X190616358Y-95114781D01*
X190771107Y-95084000D01*
X190928893Y-95084000D01*
X191083642Y-95114781D01*
G37*
G36*
X188543642Y-92574781D02*
G01*
X188689414Y-92635162D01*
X188689416Y-92635163D01*
X188820608Y-92722822D01*
X188932178Y-92834392D01*
X189019837Y-92965584D01*
X189019838Y-92965586D01*
X189080219Y-93111358D01*
X189111000Y-93266107D01*
X189111000Y-93423893D01*
X189080219Y-93578642D01*
X189019838Y-93724414D01*
X189019837Y-93724416D01*
X188932178Y-93855608D01*
X188820608Y-93967178D01*
X188689416Y-94054837D01*
X188689415Y-94054838D01*
X188689414Y-94054838D01*
X188543642Y-94115219D01*
X188388893Y-94146000D01*
X188231107Y-94146000D01*
X188076358Y-94115219D01*
X187930586Y-94054838D01*
X187930585Y-94054838D01*
X187930584Y-94054837D01*
X187799392Y-93967178D01*
X187687822Y-93855608D01*
X187600163Y-93724416D01*
X187600162Y-93724414D01*
X187539781Y-93578642D01*
X187509000Y-93423893D01*
X187509000Y-93266107D01*
X187539781Y-93111358D01*
X187600162Y-92965586D01*
X187600163Y-92965584D01*
X187687822Y-92834392D01*
X187799392Y-92722822D01*
X187930584Y-92635163D01*
X187930586Y-92635162D01*
X188076358Y-92574781D01*
X188231107Y-92544000D01*
X188388893Y-92544000D01*
X188543642Y-92574781D01*
G37*
G36*
X191083642Y-92574781D02*
G01*
X191229414Y-92635162D01*
X191229416Y-92635163D01*
X191360608Y-92722822D01*
X191472178Y-92834392D01*
X191559837Y-92965584D01*
X191559838Y-92965586D01*
X191620219Y-93111358D01*
X191651000Y-93266107D01*
X191651000Y-93423893D01*
X191620219Y-93578642D01*
X191559838Y-93724414D01*
X191559837Y-93724416D01*
X191472178Y-93855608D01*
X191360608Y-93967178D01*
X191229416Y-94054837D01*
X191229415Y-94054838D01*
X191229414Y-94054838D01*
X191083642Y-94115219D01*
X190928893Y-94146000D01*
X190771107Y-94146000D01*
X190616358Y-94115219D01*
X190470586Y-94054838D01*
X190470585Y-94054838D01*
X190470584Y-94054837D01*
X190339392Y-93967178D01*
X190227822Y-93855608D01*
X190140163Y-93724416D01*
X190140162Y-93724414D01*
X190079781Y-93578642D01*
X190049000Y-93423893D01*
X190049000Y-93266107D01*
X190079781Y-93111358D01*
X190140162Y-92965586D01*
X190140163Y-92965584D01*
X190227822Y-92834392D01*
X190339392Y-92722822D01*
X190470584Y-92635163D01*
X190470586Y-92635162D01*
X190616358Y-92574781D01*
X190771107Y-92544000D01*
X190928893Y-92544000D01*
X191083642Y-92574781D01*
G37*
G36*
X128083642Y-92574781D02*
G01*
X128229414Y-92635162D01*
X128229416Y-92635163D01*
X128360608Y-92722822D01*
X128472178Y-92834392D01*
X128559837Y-92965584D01*
X128559838Y-92965586D01*
X128620219Y-93111358D01*
X128651000Y-93266107D01*
X128651000Y-93423893D01*
X128620219Y-93578642D01*
X128559838Y-93724414D01*
X128559837Y-93724416D01*
X128472178Y-93855608D01*
X128360608Y-93967178D01*
X128229416Y-94054837D01*
X128229415Y-94054838D01*
X128229414Y-94054838D01*
X128083642Y-94115219D01*
X127928893Y-94146000D01*
X127771107Y-94146000D01*
X127616358Y-94115219D01*
X127470586Y-94054838D01*
X127470585Y-94054838D01*
X127470584Y-94054837D01*
X127339392Y-93967178D01*
X127227822Y-93855608D01*
X127140163Y-93724416D01*
X127140162Y-93724414D01*
X127079781Y-93578642D01*
X127049000Y-93423893D01*
X127049000Y-93266107D01*
X127079781Y-93111358D01*
X127140162Y-92965586D01*
X127140163Y-92965584D01*
X127227822Y-92834392D01*
X127339392Y-92722822D01*
X127470584Y-92635163D01*
X127470586Y-92635162D01*
X127616358Y-92574781D01*
X127771107Y-92544000D01*
X127928893Y-92544000D01*
X128083642Y-92574781D01*
G37*
G36*
X125543642Y-92574781D02*
G01*
X125689414Y-92635162D01*
X125689416Y-92635163D01*
X125820608Y-92722822D01*
X125932178Y-92834392D01*
X126019837Y-92965584D01*
X126019838Y-92965586D01*
X126080219Y-93111358D01*
X126111000Y-93266107D01*
X126111000Y-93423893D01*
X126080219Y-93578642D01*
X126019838Y-93724414D01*
X126019837Y-93724416D01*
X125932178Y-93855608D01*
X125820608Y-93967178D01*
X125689416Y-94054837D01*
X125689415Y-94054838D01*
X125689414Y-94054838D01*
X125543642Y-94115219D01*
X125388893Y-94146000D01*
X125231107Y-94146000D01*
X125076358Y-94115219D01*
X124930586Y-94054838D01*
X124930585Y-94054838D01*
X124930584Y-94054837D01*
X124799392Y-93967178D01*
X124687822Y-93855608D01*
X124600163Y-93724416D01*
X124600162Y-93724414D01*
X124539781Y-93578642D01*
X124509000Y-93423893D01*
X124509000Y-93266107D01*
X124539781Y-93111358D01*
X124600162Y-92965586D01*
X124600163Y-92965584D01*
X124687822Y-92834392D01*
X124799392Y-92722822D01*
X124930584Y-92635163D01*
X124930586Y-92635162D01*
X125076358Y-92574781D01*
X125231107Y-92544000D01*
X125388893Y-92544000D01*
X125543642Y-92574781D01*
G37*
G36*
X188543642Y-90034781D02*
G01*
X188689414Y-90095162D01*
X188689416Y-90095163D01*
X188820608Y-90182822D01*
X188932178Y-90294392D01*
X189019837Y-90425584D01*
X189019838Y-90425586D01*
X189080219Y-90571358D01*
X189111000Y-90726107D01*
X189111000Y-90883893D01*
X189080219Y-91038642D01*
X189019838Y-91184414D01*
X189019837Y-91184416D01*
X188932178Y-91315608D01*
X188820608Y-91427178D01*
X188689416Y-91514837D01*
X188689415Y-91514838D01*
X188689414Y-91514838D01*
X188543642Y-91575219D01*
X188388893Y-91606000D01*
X188231107Y-91606000D01*
X188076358Y-91575219D01*
X187930586Y-91514838D01*
X187930585Y-91514838D01*
X187930584Y-91514837D01*
X187799392Y-91427178D01*
X187687822Y-91315608D01*
X187600163Y-91184416D01*
X187600162Y-91184414D01*
X187539781Y-91038642D01*
X187509000Y-90883893D01*
X187509000Y-90726107D01*
X187539781Y-90571358D01*
X187600162Y-90425586D01*
X187600163Y-90425584D01*
X187687822Y-90294392D01*
X187799392Y-90182822D01*
X187930584Y-90095163D01*
X187930586Y-90095162D01*
X188076358Y-90034781D01*
X188231107Y-90004000D01*
X188388893Y-90004000D01*
X188543642Y-90034781D01*
G37*
G36*
X128083642Y-90034781D02*
G01*
X128229414Y-90095162D01*
X128229416Y-90095163D01*
X128360608Y-90182822D01*
X128472178Y-90294392D01*
X128559837Y-90425584D01*
X128559838Y-90425586D01*
X128620219Y-90571358D01*
X128651000Y-90726107D01*
X128651000Y-90883893D01*
X128620219Y-91038642D01*
X128559838Y-91184414D01*
X128559837Y-91184416D01*
X128472178Y-91315608D01*
X128360608Y-91427178D01*
X128229416Y-91514837D01*
X128229415Y-91514838D01*
X128229414Y-91514838D01*
X128083642Y-91575219D01*
X127928893Y-91606000D01*
X127771107Y-91606000D01*
X127616358Y-91575219D01*
X127470586Y-91514838D01*
X127470585Y-91514838D01*
X127470584Y-91514837D01*
X127339392Y-91427178D01*
X127227822Y-91315608D01*
X127140163Y-91184416D01*
X127140162Y-91184414D01*
X127079781Y-91038642D01*
X127049000Y-90883893D01*
X127049000Y-90726107D01*
X127079781Y-90571358D01*
X127140162Y-90425586D01*
X127140163Y-90425584D01*
X127227822Y-90294392D01*
X127339392Y-90182822D01*
X127470584Y-90095163D01*
X127470586Y-90095162D01*
X127616358Y-90034781D01*
X127771107Y-90004000D01*
X127928893Y-90004000D01*
X128083642Y-90034781D01*
G37*
G36*
X125543642Y-90034781D02*
G01*
X125689414Y-90095162D01*
X125689416Y-90095163D01*
X125820608Y-90182822D01*
X125932178Y-90294392D01*
X126019837Y-90425584D01*
X126019838Y-90425586D01*
X126080219Y-90571358D01*
X126111000Y-90726107D01*
X126111000Y-90883893D01*
X126080219Y-91038642D01*
X126019838Y-91184414D01*
X126019837Y-91184416D01*
X125932178Y-91315608D01*
X125820608Y-91427178D01*
X125689416Y-91514837D01*
X125689415Y-91514838D01*
X125689414Y-91514838D01*
X125543642Y-91575219D01*
X125388893Y-91606000D01*
X125231107Y-91606000D01*
X125076358Y-91575219D01*
X124930586Y-91514838D01*
X124930585Y-91514838D01*
X124930584Y-91514837D01*
X124799392Y-91427178D01*
X124687822Y-91315608D01*
X124600163Y-91184416D01*
X124600162Y-91184414D01*
X124539781Y-91038642D01*
X124509000Y-90883893D01*
X124509000Y-90726107D01*
X124539781Y-90571358D01*
X124600162Y-90425586D01*
X124600163Y-90425584D01*
X124687822Y-90294392D01*
X124799392Y-90182822D01*
X124930584Y-90095163D01*
X124930586Y-90095162D01*
X125076358Y-90034781D01*
X125231107Y-90004000D01*
X125388893Y-90004000D01*
X125543642Y-90034781D01*
G37*
G36*
X191083642Y-90034781D02*
G01*
X191229414Y-90095162D01*
X191229416Y-90095163D01*
X191360608Y-90182822D01*
X191472178Y-90294392D01*
X191559837Y-90425584D01*
X191559838Y-90425586D01*
X191620219Y-90571358D01*
X191651000Y-90726107D01*
X191651000Y-90883893D01*
X191620219Y-91038642D01*
X191559838Y-91184414D01*
X191559837Y-91184416D01*
X191472178Y-91315608D01*
X191360608Y-91427178D01*
X191229416Y-91514837D01*
X191229415Y-91514838D01*
X191229414Y-91514838D01*
X191083642Y-91575219D01*
X190928893Y-91606000D01*
X190771107Y-91606000D01*
X190616358Y-91575219D01*
X190470586Y-91514838D01*
X190470585Y-91514838D01*
X190470584Y-91514837D01*
X190339392Y-91427178D01*
X190227822Y-91315608D01*
X190140163Y-91184416D01*
X190140162Y-91184414D01*
X190079781Y-91038642D01*
X190049000Y-90883893D01*
X190049000Y-90726107D01*
X190079781Y-90571358D01*
X190140162Y-90425586D01*
X190140163Y-90425584D01*
X190227822Y-90294392D01*
X190339392Y-90182822D01*
X190470584Y-90095163D01*
X190470586Y-90095162D01*
X190616358Y-90034781D01*
X190771107Y-90004000D01*
X190928893Y-90004000D01*
X191083642Y-90034781D01*
G37*
G36*
X128083642Y-87494781D02*
G01*
X128229414Y-87555162D01*
X128229416Y-87555163D01*
X128360608Y-87642822D01*
X128472178Y-87754392D01*
X128559837Y-87885584D01*
X128559838Y-87885586D01*
X128620219Y-88031358D01*
X128651000Y-88186107D01*
X128651000Y-88343893D01*
X128620219Y-88498642D01*
X128559838Y-88644414D01*
X128559837Y-88644416D01*
X128472178Y-88775608D01*
X128360608Y-88887178D01*
X128229416Y-88974837D01*
X128229415Y-88974838D01*
X128229414Y-88974838D01*
X128083642Y-89035219D01*
X127928893Y-89066000D01*
X127771107Y-89066000D01*
X127616358Y-89035219D01*
X127470586Y-88974838D01*
X127470585Y-88974838D01*
X127470584Y-88974837D01*
X127339392Y-88887178D01*
X127227822Y-88775608D01*
X127140163Y-88644416D01*
X127140162Y-88644414D01*
X127079781Y-88498642D01*
X127049000Y-88343893D01*
X127049000Y-88186107D01*
X127079781Y-88031358D01*
X127140162Y-87885586D01*
X127140163Y-87885584D01*
X127227822Y-87754392D01*
X127339392Y-87642822D01*
X127470584Y-87555163D01*
X127470586Y-87555162D01*
X127616358Y-87494781D01*
X127771107Y-87464000D01*
X127928893Y-87464000D01*
X128083642Y-87494781D01*
G37*
G36*
X188543642Y-87494781D02*
G01*
X188689414Y-87555162D01*
X188689416Y-87555163D01*
X188820608Y-87642822D01*
X188932178Y-87754392D01*
X189019837Y-87885584D01*
X189019838Y-87885586D01*
X189080219Y-88031358D01*
X189111000Y-88186107D01*
X189111000Y-88343893D01*
X189080219Y-88498642D01*
X189019838Y-88644414D01*
X189019837Y-88644416D01*
X188932178Y-88775608D01*
X188820608Y-88887178D01*
X188689416Y-88974837D01*
X188689415Y-88974838D01*
X188689414Y-88974838D01*
X188543642Y-89035219D01*
X188388893Y-89066000D01*
X188231107Y-89066000D01*
X188076358Y-89035219D01*
X187930586Y-88974838D01*
X187930585Y-88974838D01*
X187930584Y-88974837D01*
X187799392Y-88887178D01*
X187687822Y-88775608D01*
X187600163Y-88644416D01*
X187600162Y-88644414D01*
X187539781Y-88498642D01*
X187509000Y-88343893D01*
X187509000Y-88186107D01*
X187539781Y-88031358D01*
X187600162Y-87885586D01*
X187600163Y-87885584D01*
X187687822Y-87754392D01*
X187799392Y-87642822D01*
X187930584Y-87555163D01*
X187930586Y-87555162D01*
X188076358Y-87494781D01*
X188231107Y-87464000D01*
X188388893Y-87464000D01*
X188543642Y-87494781D01*
G37*
G36*
X125543642Y-87494781D02*
G01*
X125689414Y-87555162D01*
X125689416Y-87555163D01*
X125820608Y-87642822D01*
X125932178Y-87754392D01*
X126019837Y-87885584D01*
X126019838Y-87885586D01*
X126080219Y-88031358D01*
X126111000Y-88186107D01*
X126111000Y-88343893D01*
X126080219Y-88498642D01*
X126019838Y-88644414D01*
X126019837Y-88644416D01*
X125932178Y-88775608D01*
X125820608Y-88887178D01*
X125689416Y-88974837D01*
X125689415Y-88974838D01*
X125689414Y-88974838D01*
X125543642Y-89035219D01*
X125388893Y-89066000D01*
X125231107Y-89066000D01*
X125076358Y-89035219D01*
X124930586Y-88974838D01*
X124930585Y-88974838D01*
X124930584Y-88974837D01*
X124799392Y-88887178D01*
X124687822Y-88775608D01*
X124600163Y-88644416D01*
X124600162Y-88644414D01*
X124539781Y-88498642D01*
X124509000Y-88343893D01*
X124509000Y-88186107D01*
X124539781Y-88031358D01*
X124600162Y-87885586D01*
X124600163Y-87885584D01*
X124687822Y-87754392D01*
X124799392Y-87642822D01*
X124930584Y-87555163D01*
X124930586Y-87555162D01*
X125076358Y-87494781D01*
X125231107Y-87464000D01*
X125388893Y-87464000D01*
X125543642Y-87494781D01*
G37*
G36*
X191083642Y-87494781D02*
G01*
X191229414Y-87555162D01*
X191229416Y-87555163D01*
X191360608Y-87642822D01*
X191472178Y-87754392D01*
X191559837Y-87885584D01*
X191559838Y-87885586D01*
X191620219Y-88031358D01*
X191651000Y-88186107D01*
X191651000Y-88343893D01*
X191620219Y-88498642D01*
X191559838Y-88644414D01*
X191559837Y-88644416D01*
X191472178Y-88775608D01*
X191360608Y-88887178D01*
X191229416Y-88974837D01*
X191229415Y-88974838D01*
X191229414Y-88974838D01*
X191083642Y-89035219D01*
X190928893Y-89066000D01*
X190771107Y-89066000D01*
X190616358Y-89035219D01*
X190470586Y-88974838D01*
X190470585Y-88974838D01*
X190470584Y-88974837D01*
X190339392Y-88887178D01*
X190227822Y-88775608D01*
X190140163Y-88644416D01*
X190140162Y-88644414D01*
X190079781Y-88498642D01*
X190049000Y-88343893D01*
X190049000Y-88186107D01*
X190079781Y-88031358D01*
X190140162Y-87885586D01*
X190140163Y-87885584D01*
X190227822Y-87754392D01*
X190339392Y-87642822D01*
X190470584Y-87555163D01*
X190470586Y-87555162D01*
X190616358Y-87494781D01*
X190771107Y-87464000D01*
X190928893Y-87464000D01*
X191083642Y-87494781D01*
G37*
G36*
X188543642Y-84954781D02*
G01*
X188689414Y-85015162D01*
X188689416Y-85015163D01*
X188820608Y-85102822D01*
X188932178Y-85214392D01*
X189019837Y-85345584D01*
X189019838Y-85345586D01*
X189080219Y-85491358D01*
X189111000Y-85646107D01*
X189111000Y-85803893D01*
X189080219Y-85958642D01*
X189019838Y-86104414D01*
X189019837Y-86104416D01*
X188932178Y-86235608D01*
X188820608Y-86347178D01*
X188689416Y-86434837D01*
X188689415Y-86434838D01*
X188689414Y-86434838D01*
X188543642Y-86495219D01*
X188388893Y-86526000D01*
X188231107Y-86526000D01*
X188076358Y-86495219D01*
X187930586Y-86434838D01*
X187930585Y-86434838D01*
X187930584Y-86434837D01*
X187799392Y-86347178D01*
X187687822Y-86235608D01*
X187600163Y-86104416D01*
X187600162Y-86104414D01*
X187539781Y-85958642D01*
X187509000Y-85803893D01*
X187509000Y-85646107D01*
X187539781Y-85491358D01*
X187600162Y-85345586D01*
X187600163Y-85345584D01*
X187687822Y-85214392D01*
X187799392Y-85102822D01*
X187930584Y-85015163D01*
X187930586Y-85015162D01*
X188076358Y-84954781D01*
X188231107Y-84924000D01*
X188388893Y-84924000D01*
X188543642Y-84954781D01*
G37*
G36*
X125543642Y-84954781D02*
G01*
X125689414Y-85015162D01*
X125689416Y-85015163D01*
X125820608Y-85102822D01*
X125932178Y-85214392D01*
X126019837Y-85345584D01*
X126019838Y-85345586D01*
X126080219Y-85491358D01*
X126111000Y-85646107D01*
X126111000Y-85803893D01*
X126080219Y-85958642D01*
X126019838Y-86104414D01*
X126019837Y-86104416D01*
X125932178Y-86235608D01*
X125820608Y-86347178D01*
X125689416Y-86434837D01*
X125689415Y-86434838D01*
X125689414Y-86434838D01*
X125543642Y-86495219D01*
X125388893Y-86526000D01*
X125231107Y-86526000D01*
X125076358Y-86495219D01*
X124930586Y-86434838D01*
X124930585Y-86434838D01*
X124930584Y-86434837D01*
X124799392Y-86347178D01*
X124687822Y-86235608D01*
X124600163Y-86104416D01*
X124600162Y-86104414D01*
X124539781Y-85958642D01*
X124509000Y-85803893D01*
X124509000Y-85646107D01*
X124539781Y-85491358D01*
X124600162Y-85345586D01*
X124600163Y-85345584D01*
X124687822Y-85214392D01*
X124799392Y-85102822D01*
X124930584Y-85015163D01*
X124930586Y-85015162D01*
X125076358Y-84954781D01*
X125231107Y-84924000D01*
X125388893Y-84924000D01*
X125543642Y-84954781D01*
G37*
G36*
X128083642Y-84954781D02*
G01*
X128229414Y-85015162D01*
X128229416Y-85015163D01*
X128360608Y-85102822D01*
X128472178Y-85214392D01*
X128559837Y-85345584D01*
X128559838Y-85345586D01*
X128620219Y-85491358D01*
X128651000Y-85646107D01*
X128651000Y-85803893D01*
X128620219Y-85958642D01*
X128559838Y-86104414D01*
X128559837Y-86104416D01*
X128472178Y-86235608D01*
X128360608Y-86347178D01*
X128229416Y-86434837D01*
X128229415Y-86434838D01*
X128229414Y-86434838D01*
X128083642Y-86495219D01*
X127928893Y-86526000D01*
X127771107Y-86526000D01*
X127616358Y-86495219D01*
X127470586Y-86434838D01*
X127470585Y-86434838D01*
X127470584Y-86434837D01*
X127339392Y-86347178D01*
X127227822Y-86235608D01*
X127140163Y-86104416D01*
X127140162Y-86104414D01*
X127079781Y-85958642D01*
X127049000Y-85803893D01*
X127049000Y-85646107D01*
X127079781Y-85491358D01*
X127140162Y-85345586D01*
X127140163Y-85345584D01*
X127227822Y-85214392D01*
X127339392Y-85102822D01*
X127470584Y-85015163D01*
X127470586Y-85015162D01*
X127616358Y-84954781D01*
X127771107Y-84924000D01*
X127928893Y-84924000D01*
X128083642Y-84954781D01*
G37*
G36*
X191083642Y-84954781D02*
G01*
X191229414Y-85015162D01*
X191229416Y-85015163D01*
X191360608Y-85102822D01*
X191472178Y-85214392D01*
X191559837Y-85345584D01*
X191559838Y-85345586D01*
X191620219Y-85491358D01*
X191651000Y-85646107D01*
X191651000Y-85803893D01*
X191620219Y-85958642D01*
X191559838Y-86104414D01*
X191559837Y-86104416D01*
X191472178Y-86235608D01*
X191360608Y-86347178D01*
X191229416Y-86434837D01*
X191229415Y-86434838D01*
X191229414Y-86434838D01*
X191083642Y-86495219D01*
X190928893Y-86526000D01*
X190771107Y-86526000D01*
X190616358Y-86495219D01*
X190470586Y-86434838D01*
X190470585Y-86434838D01*
X190470584Y-86434837D01*
X190339392Y-86347178D01*
X190227822Y-86235608D01*
X190140163Y-86104416D01*
X190140162Y-86104414D01*
X190079781Y-85958642D01*
X190049000Y-85803893D01*
X190049000Y-85646107D01*
X190079781Y-85491358D01*
X190140162Y-85345586D01*
X190140163Y-85345584D01*
X190227822Y-85214392D01*
X190339392Y-85102822D01*
X190470584Y-85015163D01*
X190470586Y-85015162D01*
X190616358Y-84954781D01*
X190771107Y-84924000D01*
X190928893Y-84924000D01*
X191083642Y-84954781D01*
G37*
G36*
X171804000Y-85715500D02*
G01*
X170002000Y-85715500D01*
X170002000Y-83913500D01*
X171804000Y-83913500D01*
X171804000Y-85715500D01*
G37*
G36*
X125543642Y-82414781D02*
G01*
X125689414Y-82475162D01*
X125689416Y-82475163D01*
X125820608Y-82562822D01*
X125932178Y-82674392D01*
X126019837Y-82805584D01*
X126019838Y-82805586D01*
X126080219Y-82951358D01*
X126111000Y-83106107D01*
X126111000Y-83263893D01*
X126080219Y-83418642D01*
X126019838Y-83564414D01*
X126019837Y-83564416D01*
X125932178Y-83695608D01*
X125820608Y-83807178D01*
X125689416Y-83894837D01*
X125689415Y-83894838D01*
X125689414Y-83894838D01*
X125543642Y-83955219D01*
X125388893Y-83986000D01*
X125231107Y-83986000D01*
X125076358Y-83955219D01*
X124930586Y-83894838D01*
X124930585Y-83894838D01*
X124930584Y-83894837D01*
X124799392Y-83807178D01*
X124687822Y-83695608D01*
X124600163Y-83564416D01*
X124600162Y-83564414D01*
X124539781Y-83418642D01*
X124509000Y-83263893D01*
X124509000Y-83106107D01*
X124539781Y-82951358D01*
X124600162Y-82805586D01*
X124600163Y-82805584D01*
X124687822Y-82674392D01*
X124799392Y-82562822D01*
X124930584Y-82475163D01*
X124930586Y-82475162D01*
X125076358Y-82414781D01*
X125231107Y-82384000D01*
X125388893Y-82384000D01*
X125543642Y-82414781D01*
G37*
G36*
X128083642Y-82414781D02*
G01*
X128229414Y-82475162D01*
X128229416Y-82475163D01*
X128360608Y-82562822D01*
X128472178Y-82674392D01*
X128559837Y-82805584D01*
X128559838Y-82805586D01*
X128620219Y-82951358D01*
X128651000Y-83106107D01*
X128651000Y-83263893D01*
X128620219Y-83418642D01*
X128559838Y-83564414D01*
X128559837Y-83564416D01*
X128472178Y-83695608D01*
X128360608Y-83807178D01*
X128229416Y-83894837D01*
X128229415Y-83894838D01*
X128229414Y-83894838D01*
X128083642Y-83955219D01*
X127928893Y-83986000D01*
X127771107Y-83986000D01*
X127616358Y-83955219D01*
X127470586Y-83894838D01*
X127470585Y-83894838D01*
X127470584Y-83894837D01*
X127339392Y-83807178D01*
X127227822Y-83695608D01*
X127140163Y-83564416D01*
X127140162Y-83564414D01*
X127079781Y-83418642D01*
X127049000Y-83263893D01*
X127049000Y-83106107D01*
X127079781Y-82951358D01*
X127140162Y-82805586D01*
X127140163Y-82805584D01*
X127227822Y-82674392D01*
X127339392Y-82562822D01*
X127470584Y-82475163D01*
X127470586Y-82475162D01*
X127616358Y-82414781D01*
X127771107Y-82384000D01*
X127928893Y-82384000D01*
X128083642Y-82414781D01*
G37*
G36*
X188543642Y-82414781D02*
G01*
X188689414Y-82475162D01*
X188689416Y-82475163D01*
X188820608Y-82562822D01*
X188932178Y-82674392D01*
X189019837Y-82805584D01*
X189019838Y-82805586D01*
X189080219Y-82951358D01*
X189111000Y-83106107D01*
X189111000Y-83263893D01*
X189080219Y-83418642D01*
X189019838Y-83564414D01*
X189019837Y-83564416D01*
X188932178Y-83695608D01*
X188820608Y-83807178D01*
X188689416Y-83894837D01*
X188689415Y-83894838D01*
X188689414Y-83894838D01*
X188543642Y-83955219D01*
X188388893Y-83986000D01*
X188231107Y-83986000D01*
X188076358Y-83955219D01*
X187930586Y-83894838D01*
X187930585Y-83894838D01*
X187930584Y-83894837D01*
X187799392Y-83807178D01*
X187687822Y-83695608D01*
X187600163Y-83564416D01*
X187600162Y-83564414D01*
X187539781Y-83418642D01*
X187509000Y-83263893D01*
X187509000Y-83106107D01*
X187539781Y-82951358D01*
X187600162Y-82805586D01*
X187600163Y-82805584D01*
X187687822Y-82674392D01*
X187799392Y-82562822D01*
X187930584Y-82475163D01*
X187930586Y-82475162D01*
X188076358Y-82414781D01*
X188231107Y-82384000D01*
X188388893Y-82384000D01*
X188543642Y-82414781D01*
G37*
G36*
X191083642Y-82414781D02*
G01*
X191229414Y-82475162D01*
X191229416Y-82475163D01*
X191360608Y-82562822D01*
X191472178Y-82674392D01*
X191559837Y-82805584D01*
X191559838Y-82805586D01*
X191620219Y-82951358D01*
X191651000Y-83106107D01*
X191651000Y-83263893D01*
X191620219Y-83418642D01*
X191559838Y-83564414D01*
X191559837Y-83564416D01*
X191472178Y-83695608D01*
X191360608Y-83807178D01*
X191229416Y-83894837D01*
X191229415Y-83894838D01*
X191229414Y-83894838D01*
X191083642Y-83955219D01*
X190928893Y-83986000D01*
X190771107Y-83986000D01*
X190616358Y-83955219D01*
X190470586Y-83894838D01*
X190470585Y-83894838D01*
X190470584Y-83894837D01*
X190339392Y-83807178D01*
X190227822Y-83695608D01*
X190140163Y-83564416D01*
X190140162Y-83564414D01*
X190079781Y-83418642D01*
X190049000Y-83263893D01*
X190049000Y-83106107D01*
X190079781Y-82951358D01*
X190140162Y-82805586D01*
X190140163Y-82805584D01*
X190227822Y-82674392D01*
X190339392Y-82562822D01*
X190470584Y-82475163D01*
X190470586Y-82475162D01*
X190616358Y-82414781D01*
X190771107Y-82384000D01*
X190928893Y-82384000D01*
X191083642Y-82414781D01*
G37*
G36*
X171016512Y-81378427D02*
G01*
X171165812Y-81408124D01*
X171329784Y-81476044D01*
X171477354Y-81574647D01*
X171602853Y-81700146D01*
X171701456Y-81847716D01*
X171769376Y-82011688D01*
X171804000Y-82185759D01*
X171804000Y-82363241D01*
X171769376Y-82537312D01*
X171701456Y-82701284D01*
X171602853Y-82848854D01*
X171477354Y-82974353D01*
X171329784Y-83072956D01*
X171165812Y-83140876D01*
X171016512Y-83170573D01*
X170991742Y-83175500D01*
X170814258Y-83175500D01*
X170789488Y-83170573D01*
X170640188Y-83140876D01*
X170476216Y-83072956D01*
X170328646Y-82974353D01*
X170203147Y-82848854D01*
X170104544Y-82701284D01*
X170036624Y-82537312D01*
X170002000Y-82363241D01*
X170002000Y-82185759D01*
X170036624Y-82011688D01*
X170104544Y-81847716D01*
X170203147Y-81700146D01*
X170328646Y-81574647D01*
X170476216Y-81476044D01*
X170640188Y-81408124D01*
X170789488Y-81378427D01*
X170814258Y-81373500D01*
X170991742Y-81373500D01*
X171016512Y-81378427D01*
G37*
G36*
X125543642Y-79874781D02*
G01*
X125689414Y-79935162D01*
X125689416Y-79935163D01*
X125820608Y-80022822D01*
X125932178Y-80134392D01*
X126019837Y-80265584D01*
X126019838Y-80265586D01*
X126080219Y-80411358D01*
X126111000Y-80566107D01*
X126111000Y-80723893D01*
X126080219Y-80878642D01*
X126019838Y-81024414D01*
X126019837Y-81024416D01*
X125932178Y-81155608D01*
X125820608Y-81267178D01*
X125689416Y-81354837D01*
X125689415Y-81354838D01*
X125689414Y-81354838D01*
X125543642Y-81415219D01*
X125388893Y-81446000D01*
X125231107Y-81446000D01*
X125076358Y-81415219D01*
X124930586Y-81354838D01*
X124930585Y-81354838D01*
X124930584Y-81354837D01*
X124799392Y-81267178D01*
X124687822Y-81155608D01*
X124600163Y-81024416D01*
X124600162Y-81024414D01*
X124539781Y-80878642D01*
X124509000Y-80723893D01*
X124509000Y-80566107D01*
X124539781Y-80411358D01*
X124600162Y-80265586D01*
X124600163Y-80265584D01*
X124687822Y-80134392D01*
X124799392Y-80022822D01*
X124930584Y-79935163D01*
X124930586Y-79935162D01*
X125076358Y-79874781D01*
X125231107Y-79844000D01*
X125388893Y-79844000D01*
X125543642Y-79874781D01*
G37*
G36*
X188543642Y-79874781D02*
G01*
X188689414Y-79935162D01*
X188689416Y-79935163D01*
X188820608Y-80022822D01*
X188932178Y-80134392D01*
X189019837Y-80265584D01*
X189019838Y-80265586D01*
X189080219Y-80411358D01*
X189111000Y-80566107D01*
X189111000Y-80723893D01*
X189080219Y-80878642D01*
X189019838Y-81024414D01*
X189019837Y-81024416D01*
X188932178Y-81155608D01*
X188820608Y-81267178D01*
X188689416Y-81354837D01*
X188689415Y-81354838D01*
X188689414Y-81354838D01*
X188543642Y-81415219D01*
X188388893Y-81446000D01*
X188231107Y-81446000D01*
X188076358Y-81415219D01*
X187930586Y-81354838D01*
X187930585Y-81354838D01*
X187930584Y-81354837D01*
X187799392Y-81267178D01*
X187687822Y-81155608D01*
X187600163Y-81024416D01*
X187600162Y-81024414D01*
X187539781Y-80878642D01*
X187509000Y-80723893D01*
X187509000Y-80566107D01*
X187539781Y-80411358D01*
X187600162Y-80265586D01*
X187600163Y-80265584D01*
X187687822Y-80134392D01*
X187799392Y-80022822D01*
X187930584Y-79935163D01*
X187930586Y-79935162D01*
X188076358Y-79874781D01*
X188231107Y-79844000D01*
X188388893Y-79844000D01*
X188543642Y-79874781D01*
G37*
G36*
X191083642Y-79874781D02*
G01*
X191229414Y-79935162D01*
X191229416Y-79935163D01*
X191360608Y-80022822D01*
X191472178Y-80134392D01*
X191559837Y-80265584D01*
X191559838Y-80265586D01*
X191620219Y-80411358D01*
X191651000Y-80566107D01*
X191651000Y-80723893D01*
X191620219Y-80878642D01*
X191559838Y-81024414D01*
X191559837Y-81024416D01*
X191472178Y-81155608D01*
X191360608Y-81267178D01*
X191229416Y-81354837D01*
X191229415Y-81354838D01*
X191229414Y-81354838D01*
X191083642Y-81415219D01*
X190928893Y-81446000D01*
X190771107Y-81446000D01*
X190616358Y-81415219D01*
X190470586Y-81354838D01*
X190470585Y-81354838D01*
X190470584Y-81354837D01*
X190339392Y-81267178D01*
X190227822Y-81155608D01*
X190140163Y-81024416D01*
X190140162Y-81024414D01*
X190079781Y-80878642D01*
X190049000Y-80723893D01*
X190049000Y-80566107D01*
X190079781Y-80411358D01*
X190140162Y-80265586D01*
X190140163Y-80265584D01*
X190227822Y-80134392D01*
X190339392Y-80022822D01*
X190470584Y-79935163D01*
X190470586Y-79935162D01*
X190616358Y-79874781D01*
X190771107Y-79844000D01*
X190928893Y-79844000D01*
X191083642Y-79874781D01*
G37*
G36*
X128083642Y-79874781D02*
G01*
X128229414Y-79935162D01*
X128229416Y-79935163D01*
X128360608Y-80022822D01*
X128472178Y-80134392D01*
X128559837Y-80265584D01*
X128559838Y-80265586D01*
X128620219Y-80411358D01*
X128651000Y-80566107D01*
X128651000Y-80723893D01*
X128620219Y-80878642D01*
X128559838Y-81024414D01*
X128559837Y-81024416D01*
X128472178Y-81155608D01*
X128360608Y-81267178D01*
X128229416Y-81354837D01*
X128229415Y-81354838D01*
X128229414Y-81354838D01*
X128083642Y-81415219D01*
X127928893Y-81446000D01*
X127771107Y-81446000D01*
X127616358Y-81415219D01*
X127470586Y-81354838D01*
X127470585Y-81354838D01*
X127470584Y-81354837D01*
X127339392Y-81267178D01*
X127227822Y-81155608D01*
X127140163Y-81024416D01*
X127140162Y-81024414D01*
X127079781Y-80878642D01*
X127049000Y-80723893D01*
X127049000Y-80566107D01*
X127079781Y-80411358D01*
X127140162Y-80265586D01*
X127140163Y-80265584D01*
X127227822Y-80134392D01*
X127339392Y-80022822D01*
X127470584Y-79935163D01*
X127470586Y-79935162D01*
X127616358Y-79874781D01*
X127771107Y-79844000D01*
X127928893Y-79844000D01*
X128083642Y-79874781D01*
G37*
G36*
X171016512Y-78838427D02*
G01*
X171165812Y-78868124D01*
X171329784Y-78936044D01*
X171477354Y-79034647D01*
X171602853Y-79160146D01*
X171701456Y-79307716D01*
X171769376Y-79471688D01*
X171804000Y-79645759D01*
X171804000Y-79823241D01*
X171769376Y-79997312D01*
X171701456Y-80161284D01*
X171602853Y-80308854D01*
X171477354Y-80434353D01*
X171329784Y-80532956D01*
X171165812Y-80600876D01*
X171016512Y-80630573D01*
X170991742Y-80635500D01*
X170814258Y-80635500D01*
X170789488Y-80630573D01*
X170640188Y-80600876D01*
X170476216Y-80532956D01*
X170328646Y-80434353D01*
X170203147Y-80308854D01*
X170104544Y-80161284D01*
X170036624Y-79997312D01*
X170002000Y-79823241D01*
X170002000Y-79645759D01*
X170036624Y-79471688D01*
X170104544Y-79307716D01*
X170203147Y-79160146D01*
X170328646Y-79034647D01*
X170476216Y-78936044D01*
X170640188Y-78868124D01*
X170789488Y-78838427D01*
X170814258Y-78833500D01*
X170991742Y-78833500D01*
X171016512Y-78838427D01*
G37*
G36*
X125543642Y-77334781D02*
G01*
X125689414Y-77395162D01*
X125689416Y-77395163D01*
X125820608Y-77482822D01*
X125932178Y-77594392D01*
X126019837Y-77725584D01*
X126019838Y-77725586D01*
X126080219Y-77871358D01*
X126111000Y-78026107D01*
X126111000Y-78183893D01*
X126080219Y-78338642D01*
X126019838Y-78484414D01*
X126019837Y-78484416D01*
X125932178Y-78615608D01*
X125820608Y-78727178D01*
X125689416Y-78814837D01*
X125689415Y-78814838D01*
X125689414Y-78814838D01*
X125543642Y-78875219D01*
X125388893Y-78906000D01*
X125231107Y-78906000D01*
X125076358Y-78875219D01*
X124930586Y-78814838D01*
X124930585Y-78814838D01*
X124930584Y-78814837D01*
X124799392Y-78727178D01*
X124687822Y-78615608D01*
X124600163Y-78484416D01*
X124600162Y-78484414D01*
X124539781Y-78338642D01*
X124509000Y-78183893D01*
X124509000Y-78026107D01*
X124539781Y-77871358D01*
X124600162Y-77725586D01*
X124600163Y-77725584D01*
X124687822Y-77594392D01*
X124799392Y-77482822D01*
X124930584Y-77395163D01*
X124930586Y-77395162D01*
X125076358Y-77334781D01*
X125231107Y-77304000D01*
X125388893Y-77304000D01*
X125543642Y-77334781D01*
G37*
G36*
X191083642Y-77334781D02*
G01*
X191229414Y-77395162D01*
X191229416Y-77395163D01*
X191360608Y-77482822D01*
X191472178Y-77594392D01*
X191559837Y-77725584D01*
X191559838Y-77725586D01*
X191620219Y-77871358D01*
X191651000Y-78026107D01*
X191651000Y-78183893D01*
X191620219Y-78338642D01*
X191559838Y-78484414D01*
X191559837Y-78484416D01*
X191472178Y-78615608D01*
X191360608Y-78727178D01*
X191229416Y-78814837D01*
X191229415Y-78814838D01*
X191229414Y-78814838D01*
X191083642Y-78875219D01*
X190928893Y-78906000D01*
X190771107Y-78906000D01*
X190616358Y-78875219D01*
X190470586Y-78814838D01*
X190470585Y-78814838D01*
X190470584Y-78814837D01*
X190339392Y-78727178D01*
X190227822Y-78615608D01*
X190140163Y-78484416D01*
X190140162Y-78484414D01*
X190079781Y-78338642D01*
X190049000Y-78183893D01*
X190049000Y-78026107D01*
X190079781Y-77871358D01*
X190140162Y-77725586D01*
X190140163Y-77725584D01*
X190227822Y-77594392D01*
X190339392Y-77482822D01*
X190470584Y-77395163D01*
X190470586Y-77395162D01*
X190616358Y-77334781D01*
X190771107Y-77304000D01*
X190928893Y-77304000D01*
X191083642Y-77334781D01*
G37*
G36*
X188543642Y-77334781D02*
G01*
X188689414Y-77395162D01*
X188689416Y-77395163D01*
X188820608Y-77482822D01*
X188932178Y-77594392D01*
X189019837Y-77725584D01*
X189019838Y-77725586D01*
X189080219Y-77871358D01*
X189111000Y-78026107D01*
X189111000Y-78183893D01*
X189080219Y-78338642D01*
X189019838Y-78484414D01*
X189019837Y-78484416D01*
X188932178Y-78615608D01*
X188820608Y-78727178D01*
X188689416Y-78814837D01*
X188689415Y-78814838D01*
X188689414Y-78814838D01*
X188543642Y-78875219D01*
X188388893Y-78906000D01*
X188231107Y-78906000D01*
X188076358Y-78875219D01*
X187930586Y-78814838D01*
X187930585Y-78814838D01*
X187930584Y-78814837D01*
X187799392Y-78727178D01*
X187687822Y-78615608D01*
X187600163Y-78484416D01*
X187600162Y-78484414D01*
X187539781Y-78338642D01*
X187509000Y-78183893D01*
X187509000Y-78026107D01*
X187539781Y-77871358D01*
X187600162Y-77725586D01*
X187600163Y-77725584D01*
X187687822Y-77594392D01*
X187799392Y-77482822D01*
X187930584Y-77395163D01*
X187930586Y-77395162D01*
X188076358Y-77334781D01*
X188231107Y-77304000D01*
X188388893Y-77304000D01*
X188543642Y-77334781D01*
G37*
G36*
X128083642Y-77334781D02*
G01*
X128229414Y-77395162D01*
X128229416Y-77395163D01*
X128360608Y-77482822D01*
X128472178Y-77594392D01*
X128559837Y-77725584D01*
X128559838Y-77725586D01*
X128620219Y-77871358D01*
X128651000Y-78026107D01*
X128651000Y-78183893D01*
X128620219Y-78338642D01*
X128559838Y-78484414D01*
X128559837Y-78484416D01*
X128472178Y-78615608D01*
X128360608Y-78727178D01*
X128229416Y-78814837D01*
X128229415Y-78814838D01*
X128229414Y-78814838D01*
X128083642Y-78875219D01*
X127928893Y-78906000D01*
X127771107Y-78906000D01*
X127616358Y-78875219D01*
X127470586Y-78814838D01*
X127470585Y-78814838D01*
X127470584Y-78814837D01*
X127339392Y-78727178D01*
X127227822Y-78615608D01*
X127140163Y-78484416D01*
X127140162Y-78484414D01*
X127079781Y-78338642D01*
X127049000Y-78183893D01*
X127049000Y-78026107D01*
X127079781Y-77871358D01*
X127140162Y-77725586D01*
X127140163Y-77725584D01*
X127227822Y-77594392D01*
X127339392Y-77482822D01*
X127470584Y-77395163D01*
X127470586Y-77395162D01*
X127616358Y-77334781D01*
X127771107Y-77304000D01*
X127928893Y-77304000D01*
X128083642Y-77334781D01*
G37*
G36*
X128083642Y-74794781D02*
G01*
X128229414Y-74855162D01*
X128229416Y-74855163D01*
X128360608Y-74942822D01*
X128472178Y-75054392D01*
X128559837Y-75185584D01*
X128559838Y-75185586D01*
X128620219Y-75331358D01*
X128651000Y-75486107D01*
X128651000Y-75643893D01*
X128620219Y-75798642D01*
X128559838Y-75944414D01*
X128559837Y-75944416D01*
X128472178Y-76075608D01*
X128360608Y-76187178D01*
X128229416Y-76274837D01*
X128229415Y-76274838D01*
X128229414Y-76274838D01*
X128083642Y-76335219D01*
X127928893Y-76366000D01*
X127771107Y-76366000D01*
X127616358Y-76335219D01*
X127470586Y-76274838D01*
X127470585Y-76274838D01*
X127470584Y-76274837D01*
X127339392Y-76187178D01*
X127227822Y-76075608D01*
X127140163Y-75944416D01*
X127140162Y-75944414D01*
X127079781Y-75798642D01*
X127049000Y-75643893D01*
X127049000Y-75486107D01*
X127079781Y-75331358D01*
X127140162Y-75185586D01*
X127140163Y-75185584D01*
X127227822Y-75054392D01*
X127339392Y-74942822D01*
X127470584Y-74855163D01*
X127470586Y-74855162D01*
X127616358Y-74794781D01*
X127771107Y-74764000D01*
X127928893Y-74764000D01*
X128083642Y-74794781D01*
G37*
G36*
X188543642Y-74794781D02*
G01*
X188689414Y-74855162D01*
X188689416Y-74855163D01*
X188820608Y-74942822D01*
X188932178Y-75054392D01*
X189019837Y-75185584D01*
X189019838Y-75185586D01*
X189080219Y-75331358D01*
X189111000Y-75486107D01*
X189111000Y-75643893D01*
X189080219Y-75798642D01*
X189019838Y-75944414D01*
X189019837Y-75944416D01*
X188932178Y-76075608D01*
X188820608Y-76187178D01*
X188689416Y-76274837D01*
X188689415Y-76274838D01*
X188689414Y-76274838D01*
X188543642Y-76335219D01*
X188388893Y-76366000D01*
X188231107Y-76366000D01*
X188076358Y-76335219D01*
X187930586Y-76274838D01*
X187930585Y-76274838D01*
X187930584Y-76274837D01*
X187799392Y-76187178D01*
X187687822Y-76075608D01*
X187600163Y-75944416D01*
X187600162Y-75944414D01*
X187539781Y-75798642D01*
X187509000Y-75643893D01*
X187509000Y-75486107D01*
X187539781Y-75331358D01*
X187600162Y-75185586D01*
X187600163Y-75185584D01*
X187687822Y-75054392D01*
X187799392Y-74942822D01*
X187930584Y-74855163D01*
X187930586Y-74855162D01*
X188076358Y-74794781D01*
X188231107Y-74764000D01*
X188388893Y-74764000D01*
X188543642Y-74794781D01*
G37*
G36*
X191083642Y-74794781D02*
G01*
X191229414Y-74855162D01*
X191229416Y-74855163D01*
X191360608Y-74942822D01*
X191472178Y-75054392D01*
X191559837Y-75185584D01*
X191559838Y-75185586D01*
X191620219Y-75331358D01*
X191651000Y-75486107D01*
X191651000Y-75643893D01*
X191620219Y-75798642D01*
X191559838Y-75944414D01*
X191559837Y-75944416D01*
X191472178Y-76075608D01*
X191360608Y-76187178D01*
X191229416Y-76274837D01*
X191229415Y-76274838D01*
X191229414Y-76274838D01*
X191083642Y-76335219D01*
X190928893Y-76366000D01*
X190771107Y-76366000D01*
X190616358Y-76335219D01*
X190470586Y-76274838D01*
X190470585Y-76274838D01*
X190470584Y-76274837D01*
X190339392Y-76187178D01*
X190227822Y-76075608D01*
X190140163Y-75944416D01*
X190140162Y-75944414D01*
X190079781Y-75798642D01*
X190049000Y-75643893D01*
X190049000Y-75486107D01*
X190079781Y-75331358D01*
X190140162Y-75185586D01*
X190140163Y-75185584D01*
X190227822Y-75054392D01*
X190339392Y-74942822D01*
X190470584Y-74855163D01*
X190470586Y-74855162D01*
X190616358Y-74794781D01*
X190771107Y-74764000D01*
X190928893Y-74764000D01*
X191083642Y-74794781D01*
G37*
G36*
X125543642Y-74794781D02*
G01*
X125689414Y-74855162D01*
X125689416Y-74855163D01*
X125820608Y-74942822D01*
X125932178Y-75054392D01*
X126019837Y-75185584D01*
X126019838Y-75185586D01*
X126080219Y-75331358D01*
X126111000Y-75486107D01*
X126111000Y-75643893D01*
X126080219Y-75798642D01*
X126019838Y-75944414D01*
X126019837Y-75944416D01*
X125932178Y-76075608D01*
X125820608Y-76187178D01*
X125689416Y-76274837D01*
X125689415Y-76274838D01*
X125689414Y-76274838D01*
X125543642Y-76335219D01*
X125388893Y-76366000D01*
X125231107Y-76366000D01*
X125076358Y-76335219D01*
X124930586Y-76274838D01*
X124930585Y-76274838D01*
X124930584Y-76274837D01*
X124799392Y-76187178D01*
X124687822Y-76075608D01*
X124600163Y-75944416D01*
X124600162Y-75944414D01*
X124539781Y-75798642D01*
X124509000Y-75643893D01*
X124509000Y-75486107D01*
X124539781Y-75331358D01*
X124600162Y-75185586D01*
X124600163Y-75185584D01*
X124687822Y-75054392D01*
X124799392Y-74942822D01*
X124930584Y-74855163D01*
X124930586Y-74855162D01*
X125076358Y-74794781D01*
X125231107Y-74764000D01*
X125388893Y-74764000D01*
X125543642Y-74794781D01*
G37*
G36*
X128083642Y-72254781D02*
G01*
X128229414Y-72315162D01*
X128229416Y-72315163D01*
X128360608Y-72402822D01*
X128472178Y-72514392D01*
X128559837Y-72645584D01*
X128559838Y-72645586D01*
X128620219Y-72791358D01*
X128651000Y-72946107D01*
X128651000Y-73103893D01*
X128620219Y-73258642D01*
X128559838Y-73404414D01*
X128559837Y-73404416D01*
X128472178Y-73535608D01*
X128360608Y-73647178D01*
X128229416Y-73734837D01*
X128229415Y-73734838D01*
X128229414Y-73734838D01*
X128083642Y-73795219D01*
X127928893Y-73826000D01*
X127771107Y-73826000D01*
X127616358Y-73795219D01*
X127470586Y-73734838D01*
X127470585Y-73734838D01*
X127470584Y-73734837D01*
X127339392Y-73647178D01*
X127227822Y-73535608D01*
X127140163Y-73404416D01*
X127140162Y-73404414D01*
X127079781Y-73258642D01*
X127049000Y-73103893D01*
X127049000Y-72946107D01*
X127079781Y-72791358D01*
X127140162Y-72645586D01*
X127140163Y-72645584D01*
X127227822Y-72514392D01*
X127339392Y-72402822D01*
X127470584Y-72315163D01*
X127470586Y-72315162D01*
X127616358Y-72254781D01*
X127771107Y-72224000D01*
X127928893Y-72224000D01*
X128083642Y-72254781D01*
G37*
G36*
X191083642Y-72254781D02*
G01*
X191229414Y-72315162D01*
X191229416Y-72315163D01*
X191360608Y-72402822D01*
X191472178Y-72514392D01*
X191559837Y-72645584D01*
X191559838Y-72645586D01*
X191620219Y-72791358D01*
X191651000Y-72946107D01*
X191651000Y-73103893D01*
X191620219Y-73258642D01*
X191559838Y-73404414D01*
X191559837Y-73404416D01*
X191472178Y-73535608D01*
X191360608Y-73647178D01*
X191229416Y-73734837D01*
X191229415Y-73734838D01*
X191229414Y-73734838D01*
X191083642Y-73795219D01*
X190928893Y-73826000D01*
X190771107Y-73826000D01*
X190616358Y-73795219D01*
X190470586Y-73734838D01*
X190470585Y-73734838D01*
X190470584Y-73734837D01*
X190339392Y-73647178D01*
X190227822Y-73535608D01*
X190140163Y-73404416D01*
X190140162Y-73404414D01*
X190079781Y-73258642D01*
X190049000Y-73103893D01*
X190049000Y-72946107D01*
X190079781Y-72791358D01*
X190140162Y-72645586D01*
X190140163Y-72645584D01*
X190227822Y-72514392D01*
X190339392Y-72402822D01*
X190470584Y-72315163D01*
X190470586Y-72315162D01*
X190616358Y-72254781D01*
X190771107Y-72224000D01*
X190928893Y-72224000D01*
X191083642Y-72254781D01*
G37*
G36*
X188543642Y-72254781D02*
G01*
X188689414Y-72315162D01*
X188689416Y-72315163D01*
X188820608Y-72402822D01*
X188932178Y-72514392D01*
X189019837Y-72645584D01*
X189019838Y-72645586D01*
X189080219Y-72791358D01*
X189111000Y-72946107D01*
X189111000Y-73103893D01*
X189080219Y-73258642D01*
X189019838Y-73404414D01*
X189019837Y-73404416D01*
X188932178Y-73535608D01*
X188820608Y-73647178D01*
X188689416Y-73734837D01*
X188689415Y-73734838D01*
X188689414Y-73734838D01*
X188543642Y-73795219D01*
X188388893Y-73826000D01*
X188231107Y-73826000D01*
X188076358Y-73795219D01*
X187930586Y-73734838D01*
X187930585Y-73734838D01*
X187930584Y-73734837D01*
X187799392Y-73647178D01*
X187687822Y-73535608D01*
X187600163Y-73404416D01*
X187600162Y-73404414D01*
X187539781Y-73258642D01*
X187509000Y-73103893D01*
X187509000Y-72946107D01*
X187539781Y-72791358D01*
X187600162Y-72645586D01*
X187600163Y-72645584D01*
X187687822Y-72514392D01*
X187799392Y-72402822D01*
X187930584Y-72315163D01*
X187930586Y-72315162D01*
X188076358Y-72254781D01*
X188231107Y-72224000D01*
X188388893Y-72224000D01*
X188543642Y-72254781D01*
G37*
G36*
X125543642Y-72254781D02*
G01*
X125689414Y-72315162D01*
X125689416Y-72315163D01*
X125820608Y-72402822D01*
X125932178Y-72514392D01*
X126019837Y-72645584D01*
X126019838Y-72645586D01*
X126080219Y-72791358D01*
X126111000Y-72946107D01*
X126111000Y-73103893D01*
X126080219Y-73258642D01*
X126019838Y-73404414D01*
X126019837Y-73404416D01*
X125932178Y-73535608D01*
X125820608Y-73647178D01*
X125689416Y-73734837D01*
X125689415Y-73734838D01*
X125689414Y-73734838D01*
X125543642Y-73795219D01*
X125388893Y-73826000D01*
X125231107Y-73826000D01*
X125076358Y-73795219D01*
X124930586Y-73734838D01*
X124930585Y-73734838D01*
X124930584Y-73734837D01*
X124799392Y-73647178D01*
X124687822Y-73535608D01*
X124600163Y-73404416D01*
X124600162Y-73404414D01*
X124539781Y-73258642D01*
X124509000Y-73103893D01*
X124509000Y-72946107D01*
X124539781Y-72791358D01*
X124600162Y-72645586D01*
X124600163Y-72645584D01*
X124687822Y-72514392D01*
X124799392Y-72402822D01*
X124930584Y-72315163D01*
X124930586Y-72315162D01*
X125076358Y-72254781D01*
X125231107Y-72224000D01*
X125388893Y-72224000D01*
X125543642Y-72254781D01*
G37*
G36*
X191083642Y-69714781D02*
G01*
X191229414Y-69775162D01*
X191229416Y-69775163D01*
X191360608Y-69862822D01*
X191472178Y-69974392D01*
X191559837Y-70105584D01*
X191559838Y-70105586D01*
X191620219Y-70251358D01*
X191651000Y-70406107D01*
X191651000Y-70563893D01*
X191620219Y-70718642D01*
X191559838Y-70864414D01*
X191559837Y-70864416D01*
X191472178Y-70995608D01*
X191360608Y-71107178D01*
X191229416Y-71194837D01*
X191229415Y-71194838D01*
X191229414Y-71194838D01*
X191083642Y-71255219D01*
X190928893Y-71286000D01*
X190771107Y-71286000D01*
X190616358Y-71255219D01*
X190470586Y-71194838D01*
X190470585Y-71194838D01*
X190470584Y-71194837D01*
X190339392Y-71107178D01*
X190227822Y-70995608D01*
X190140163Y-70864416D01*
X190140162Y-70864414D01*
X190079781Y-70718642D01*
X190049000Y-70563893D01*
X190049000Y-70406107D01*
X190079781Y-70251358D01*
X190140162Y-70105586D01*
X190140163Y-70105584D01*
X190227822Y-69974392D01*
X190339392Y-69862822D01*
X190470584Y-69775163D01*
X190470586Y-69775162D01*
X190616358Y-69714781D01*
X190771107Y-69684000D01*
X190928893Y-69684000D01*
X191083642Y-69714781D01*
G37*
G36*
X188543642Y-69714781D02*
G01*
X188689414Y-69775162D01*
X188689416Y-69775163D01*
X188820608Y-69862822D01*
X188932178Y-69974392D01*
X189019837Y-70105584D01*
X189019838Y-70105586D01*
X189080219Y-70251358D01*
X189111000Y-70406107D01*
X189111000Y-70563893D01*
X189080219Y-70718642D01*
X189019838Y-70864414D01*
X189019837Y-70864416D01*
X188932178Y-70995608D01*
X188820608Y-71107178D01*
X188689416Y-71194837D01*
X188689415Y-71194838D01*
X188689414Y-71194838D01*
X188543642Y-71255219D01*
X188388893Y-71286000D01*
X188231107Y-71286000D01*
X188076358Y-71255219D01*
X187930586Y-71194838D01*
X187930585Y-71194838D01*
X187930584Y-71194837D01*
X187799392Y-71107178D01*
X187687822Y-70995608D01*
X187600163Y-70864416D01*
X187600162Y-70864414D01*
X187539781Y-70718642D01*
X187509000Y-70563893D01*
X187509000Y-70406107D01*
X187539781Y-70251358D01*
X187600162Y-70105586D01*
X187600163Y-70105584D01*
X187687822Y-69974392D01*
X187799392Y-69862822D01*
X187930584Y-69775163D01*
X187930586Y-69775162D01*
X188076358Y-69714781D01*
X188231107Y-69684000D01*
X188388893Y-69684000D01*
X188543642Y-69714781D01*
G37*
G36*
X128083642Y-69714781D02*
G01*
X128229414Y-69775162D01*
X128229416Y-69775163D01*
X128360608Y-69862822D01*
X128472178Y-69974392D01*
X128559837Y-70105584D01*
X128559838Y-70105586D01*
X128620219Y-70251358D01*
X128651000Y-70406107D01*
X128651000Y-70563893D01*
X128620219Y-70718642D01*
X128559838Y-70864414D01*
X128559837Y-70864416D01*
X128472178Y-70995608D01*
X128360608Y-71107178D01*
X128229416Y-71194837D01*
X128229415Y-71194838D01*
X128229414Y-71194838D01*
X128083642Y-71255219D01*
X127928893Y-71286000D01*
X127771107Y-71286000D01*
X127616358Y-71255219D01*
X127470586Y-71194838D01*
X127470585Y-71194838D01*
X127470584Y-71194837D01*
X127339392Y-71107178D01*
X127227822Y-70995608D01*
X127140163Y-70864416D01*
X127140162Y-70864414D01*
X127079781Y-70718642D01*
X127049000Y-70563893D01*
X127049000Y-70406107D01*
X127079781Y-70251358D01*
X127140162Y-70105586D01*
X127140163Y-70105584D01*
X127227822Y-69974392D01*
X127339392Y-69862822D01*
X127470584Y-69775163D01*
X127470586Y-69775162D01*
X127616358Y-69714781D01*
X127771107Y-69684000D01*
X127928893Y-69684000D01*
X128083642Y-69714781D01*
G37*
G36*
X125543642Y-69714781D02*
G01*
X125689414Y-69775162D01*
X125689416Y-69775163D01*
X125820608Y-69862822D01*
X125932178Y-69974392D01*
X126019837Y-70105584D01*
X126019838Y-70105586D01*
X126080219Y-70251358D01*
X126111000Y-70406107D01*
X126111000Y-70563893D01*
X126080219Y-70718642D01*
X126019838Y-70864414D01*
X126019837Y-70864416D01*
X125932178Y-70995608D01*
X125820608Y-71107178D01*
X125689416Y-71194837D01*
X125689415Y-71194838D01*
X125689414Y-71194838D01*
X125543642Y-71255219D01*
X125388893Y-71286000D01*
X125231107Y-71286000D01*
X125076358Y-71255219D01*
X124930586Y-71194838D01*
X124930585Y-71194838D01*
X124930584Y-71194837D01*
X124799392Y-71107178D01*
X124687822Y-70995608D01*
X124600163Y-70864416D01*
X124600162Y-70864414D01*
X124539781Y-70718642D01*
X124509000Y-70563893D01*
X124509000Y-70406107D01*
X124539781Y-70251358D01*
X124600162Y-70105586D01*
X124600163Y-70105584D01*
X124687822Y-69974392D01*
X124799392Y-69862822D01*
X124930584Y-69775163D01*
X124930586Y-69775162D01*
X125076358Y-69714781D01*
X125231107Y-69684000D01*
X125388893Y-69684000D01*
X125543642Y-69714781D01*
G37*
G36*
X125543642Y-67174781D02*
G01*
X125689414Y-67235162D01*
X125689416Y-67235163D01*
X125820608Y-67322822D01*
X125932178Y-67434392D01*
X126019837Y-67565584D01*
X126019838Y-67565586D01*
X126080219Y-67711358D01*
X126111000Y-67866107D01*
X126111000Y-68023893D01*
X126080219Y-68178642D01*
X126019838Y-68324414D01*
X126019837Y-68324416D01*
X125932178Y-68455608D01*
X125820608Y-68567178D01*
X125689416Y-68654837D01*
X125689415Y-68654838D01*
X125689414Y-68654838D01*
X125543642Y-68715219D01*
X125388893Y-68746000D01*
X125231107Y-68746000D01*
X125076358Y-68715219D01*
X124930586Y-68654838D01*
X124930585Y-68654838D01*
X124930584Y-68654837D01*
X124799392Y-68567178D01*
X124687822Y-68455608D01*
X124600163Y-68324416D01*
X124600162Y-68324414D01*
X124539781Y-68178642D01*
X124509000Y-68023893D01*
X124509000Y-67866107D01*
X124539781Y-67711358D01*
X124600162Y-67565586D01*
X124600163Y-67565584D01*
X124687822Y-67434392D01*
X124799392Y-67322822D01*
X124930584Y-67235163D01*
X124930586Y-67235162D01*
X125076358Y-67174781D01*
X125231107Y-67144000D01*
X125388893Y-67144000D01*
X125543642Y-67174781D01*
G37*
G36*
X188543642Y-67174781D02*
G01*
X188689414Y-67235162D01*
X188689416Y-67235163D01*
X188820608Y-67322822D01*
X188932178Y-67434392D01*
X189019837Y-67565584D01*
X189019838Y-67565586D01*
X189080219Y-67711358D01*
X189111000Y-67866107D01*
X189111000Y-68023893D01*
X189080219Y-68178642D01*
X189019838Y-68324414D01*
X189019837Y-68324416D01*
X188932178Y-68455608D01*
X188820608Y-68567178D01*
X188689416Y-68654837D01*
X188689415Y-68654838D01*
X188689414Y-68654838D01*
X188543642Y-68715219D01*
X188388893Y-68746000D01*
X188231107Y-68746000D01*
X188076358Y-68715219D01*
X187930586Y-68654838D01*
X187930585Y-68654838D01*
X187930584Y-68654837D01*
X187799392Y-68567178D01*
X187687822Y-68455608D01*
X187600163Y-68324416D01*
X187600162Y-68324414D01*
X187539781Y-68178642D01*
X187509000Y-68023893D01*
X187509000Y-67866107D01*
X187539781Y-67711358D01*
X187600162Y-67565586D01*
X187600163Y-67565584D01*
X187687822Y-67434392D01*
X187799392Y-67322822D01*
X187930584Y-67235163D01*
X187930586Y-67235162D01*
X188076358Y-67174781D01*
X188231107Y-67144000D01*
X188388893Y-67144000D01*
X188543642Y-67174781D01*
G37*
G36*
X191083642Y-67174781D02*
G01*
X191229414Y-67235162D01*
X191229416Y-67235163D01*
X191360608Y-67322822D01*
X191472178Y-67434392D01*
X191559837Y-67565584D01*
X191559838Y-67565586D01*
X191620219Y-67711358D01*
X191651000Y-67866107D01*
X191651000Y-68023893D01*
X191620219Y-68178642D01*
X191559838Y-68324414D01*
X191559837Y-68324416D01*
X191472178Y-68455608D01*
X191360608Y-68567178D01*
X191229416Y-68654837D01*
X191229415Y-68654838D01*
X191229414Y-68654838D01*
X191083642Y-68715219D01*
X190928893Y-68746000D01*
X190771107Y-68746000D01*
X190616358Y-68715219D01*
X190470586Y-68654838D01*
X190470585Y-68654838D01*
X190470584Y-68654837D01*
X190339392Y-68567178D01*
X190227822Y-68455608D01*
X190140163Y-68324416D01*
X190140162Y-68324414D01*
X190079781Y-68178642D01*
X190049000Y-68023893D01*
X190049000Y-67866107D01*
X190079781Y-67711358D01*
X190140162Y-67565586D01*
X190140163Y-67565584D01*
X190227822Y-67434392D01*
X190339392Y-67322822D01*
X190470584Y-67235163D01*
X190470586Y-67235162D01*
X190616358Y-67174781D01*
X190771107Y-67144000D01*
X190928893Y-67144000D01*
X191083642Y-67174781D01*
G37*
G36*
X128083642Y-67174781D02*
G01*
X128229414Y-67235162D01*
X128229416Y-67235163D01*
X128360608Y-67322822D01*
X128472178Y-67434392D01*
X128559837Y-67565584D01*
X128559838Y-67565586D01*
X128620219Y-67711358D01*
X128651000Y-67866107D01*
X128651000Y-68023893D01*
X128620219Y-68178642D01*
X128559838Y-68324414D01*
X128559837Y-68324416D01*
X128472178Y-68455608D01*
X128360608Y-68567178D01*
X128229416Y-68654837D01*
X128229415Y-68654838D01*
X128229414Y-68654838D01*
X128083642Y-68715219D01*
X127928893Y-68746000D01*
X127771107Y-68746000D01*
X127616358Y-68715219D01*
X127470586Y-68654838D01*
X127470585Y-68654838D01*
X127470584Y-68654837D01*
X127339392Y-68567178D01*
X127227822Y-68455608D01*
X127140163Y-68324416D01*
X127140162Y-68324414D01*
X127079781Y-68178642D01*
X127049000Y-68023893D01*
X127049000Y-67866107D01*
X127079781Y-67711358D01*
X127140162Y-67565586D01*
X127140163Y-67565584D01*
X127227822Y-67434392D01*
X127339392Y-67322822D01*
X127470584Y-67235163D01*
X127470586Y-67235162D01*
X127616358Y-67174781D01*
X127771107Y-67144000D01*
X127928893Y-67144000D01*
X128083642Y-67174781D01*
G37*
G36*
X125543642Y-64634781D02*
G01*
X125689414Y-64695162D01*
X125689416Y-64695163D01*
X125820608Y-64782822D01*
X125932178Y-64894392D01*
X126019837Y-65025584D01*
X126019838Y-65025586D01*
X126080219Y-65171358D01*
X126111000Y-65326107D01*
X126111000Y-65483893D01*
X126080219Y-65638642D01*
X126019838Y-65784414D01*
X126019837Y-65784416D01*
X125932178Y-65915608D01*
X125820608Y-66027178D01*
X125689416Y-66114837D01*
X125689415Y-66114838D01*
X125689414Y-66114838D01*
X125543642Y-66175219D01*
X125388893Y-66206000D01*
X125231107Y-66206000D01*
X125076358Y-66175219D01*
X124930586Y-66114838D01*
X124930585Y-66114838D01*
X124930584Y-66114837D01*
X124799392Y-66027178D01*
X124687822Y-65915608D01*
X124600163Y-65784416D01*
X124600162Y-65784414D01*
X124539781Y-65638642D01*
X124509000Y-65483893D01*
X124509000Y-65326107D01*
X124539781Y-65171358D01*
X124600162Y-65025586D01*
X124600163Y-65025584D01*
X124687822Y-64894392D01*
X124799392Y-64782822D01*
X124930584Y-64695163D01*
X124930586Y-64695162D01*
X125076358Y-64634781D01*
X125231107Y-64604000D01*
X125388893Y-64604000D01*
X125543642Y-64634781D01*
G37*
G36*
X128083642Y-64634781D02*
G01*
X128229414Y-64695162D01*
X128229416Y-64695163D01*
X128360608Y-64782822D01*
X128472178Y-64894392D01*
X128559837Y-65025584D01*
X128559838Y-65025586D01*
X128620219Y-65171358D01*
X128651000Y-65326107D01*
X128651000Y-65483893D01*
X128620219Y-65638642D01*
X128559838Y-65784414D01*
X128559837Y-65784416D01*
X128472178Y-65915608D01*
X128360608Y-66027178D01*
X128229416Y-66114837D01*
X128229415Y-66114838D01*
X128229414Y-66114838D01*
X128083642Y-66175219D01*
X127928893Y-66206000D01*
X127771107Y-66206000D01*
X127616358Y-66175219D01*
X127470586Y-66114838D01*
X127470585Y-66114838D01*
X127470584Y-66114837D01*
X127339392Y-66027178D01*
X127227822Y-65915608D01*
X127140163Y-65784416D01*
X127140162Y-65784414D01*
X127079781Y-65638642D01*
X127049000Y-65483893D01*
X127049000Y-65326107D01*
X127079781Y-65171358D01*
X127140162Y-65025586D01*
X127140163Y-65025584D01*
X127227822Y-64894392D01*
X127339392Y-64782822D01*
X127470584Y-64695163D01*
X127470586Y-64695162D01*
X127616358Y-64634781D01*
X127771107Y-64604000D01*
X127928893Y-64604000D01*
X128083642Y-64634781D01*
G37*
G36*
X191651000Y-66206000D02*
G01*
X190049000Y-66206000D01*
X190049000Y-64604000D01*
X191651000Y-64604000D01*
X191651000Y-66206000D01*
G37*
G36*
X188543642Y-64634781D02*
G01*
X188689414Y-64695162D01*
X188689416Y-64695163D01*
X188820608Y-64782822D01*
X188932178Y-64894392D01*
X189019837Y-65025584D01*
X189019838Y-65025586D01*
X189080219Y-65171358D01*
X189111000Y-65326107D01*
X189111000Y-65483893D01*
X189080219Y-65638642D01*
X189019838Y-65784414D01*
X189019837Y-65784416D01*
X188932178Y-65915608D01*
X188820608Y-66027178D01*
X188689416Y-66114837D01*
X188689415Y-66114838D01*
X188689414Y-66114838D01*
X188543642Y-66175219D01*
X188388893Y-66206000D01*
X188231107Y-66206000D01*
X188076358Y-66175219D01*
X187930586Y-66114838D01*
X187930585Y-66114838D01*
X187930584Y-66114837D01*
X187799392Y-66027178D01*
X187687822Y-65915608D01*
X187600163Y-65784416D01*
X187600162Y-65784414D01*
X187539781Y-65638642D01*
X187509000Y-65483893D01*
X187509000Y-65326107D01*
X187539781Y-65171358D01*
X187600162Y-65025586D01*
X187600163Y-65025584D01*
X187687822Y-64894392D01*
X187799392Y-64782822D01*
X187930584Y-64695163D01*
X187930586Y-64695162D01*
X188076358Y-64634781D01*
X188231107Y-64604000D01*
X188388893Y-64604000D01*
X188543642Y-64634781D01*
G37*
G36*
X199020012Y-61121927D02*
G01*
X199169312Y-61151624D01*
X199333284Y-61219544D01*
X199480854Y-61318147D01*
X199606353Y-61443646D01*
X199704956Y-61591216D01*
X199772876Y-61755188D01*
X199807500Y-61929259D01*
X199807500Y-62106741D01*
X199772876Y-62280812D01*
X199704956Y-62444784D01*
X199606353Y-62592354D01*
X199480854Y-62717853D01*
X199333284Y-62816456D01*
X199169312Y-62884376D01*
X199020012Y-62914073D01*
X198995242Y-62919000D01*
X198817758Y-62919000D01*
X198792988Y-62914073D01*
X198643688Y-62884376D01*
X198479716Y-62816456D01*
X198332146Y-62717853D01*
X198206647Y-62592354D01*
X198108044Y-62444784D01*
X198040124Y-62280812D01*
X198005500Y-62106741D01*
X198005500Y-61929259D01*
X198040124Y-61755188D01*
X198108044Y-61591216D01*
X198206647Y-61443646D01*
X198332146Y-61318147D01*
X198479716Y-61219544D01*
X198643688Y-61151624D01*
X198792988Y-61121927D01*
X198817758Y-61117000D01*
X198995242Y-61117000D01*
X199020012Y-61121927D01*
G37*
G36*
X199807500Y-60379000D02*
G01*
X198005500Y-60379000D01*
X198005500Y-58577000D01*
X199807500Y-58577000D01*
X199807500Y-60379000D01*
G37*
G36*
X199807500Y-56696000D02*
G01*
X198005500Y-56696000D01*
X198005500Y-54894000D01*
X199807500Y-54894000D01*
X199807500Y-56696000D01*
G37*
G36*
X199020012Y-52358927D02*
G01*
X199169312Y-52388624D01*
X199333284Y-52456544D01*
X199480854Y-52555147D01*
X199606353Y-52680646D01*
X199704956Y-52828216D01*
X199772876Y-52992188D01*
X199807500Y-53166259D01*
X199807500Y-53343741D01*
X199772876Y-53517812D01*
X199704956Y-53681784D01*
X199606353Y-53829354D01*
X199480854Y-53954853D01*
X199333284Y-54053456D01*
X199169312Y-54121376D01*
X199020012Y-54151073D01*
X198995242Y-54156000D01*
X198817758Y-54156000D01*
X198792988Y-54151073D01*
X198643688Y-54121376D01*
X198479716Y-54053456D01*
X198332146Y-53954853D01*
X198206647Y-53829354D01*
X198108044Y-53681784D01*
X198040124Y-53517812D01*
X198005500Y-53343741D01*
X198005500Y-53166259D01*
X198040124Y-52992188D01*
X198108044Y-52828216D01*
X198206647Y-52680646D01*
X198332146Y-52555147D01*
X198479716Y-52456544D01*
X198643688Y-52388624D01*
X198792988Y-52358927D01*
X198817758Y-52354000D01*
X198995242Y-52354000D01*
X199020012Y-52358927D01*
G37*
G36*
X135277772Y-47910428D02*
G01*
X135464491Y-47987770D01*
X135464493Y-47987771D01*
X135632537Y-48100054D01*
X135775446Y-48242963D01*
X135887729Y-48411007D01*
X135887730Y-48411009D01*
X135965072Y-48597728D01*
X136004500Y-48795947D01*
X136004500Y-48998053D01*
X135965072Y-49196272D01*
X135887730Y-49382991D01*
X135887729Y-49382993D01*
X135775446Y-49551037D01*
X135632537Y-49693946D01*
X135464493Y-49806229D01*
X135464492Y-49806230D01*
X135464491Y-49806230D01*
X135277772Y-49883572D01*
X135079553Y-49923000D01*
X134877447Y-49923000D01*
X134679228Y-49883572D01*
X134492509Y-49806230D01*
X134492508Y-49806230D01*
X134492507Y-49806229D01*
X134324463Y-49693946D01*
X134181554Y-49551037D01*
X134069271Y-49382993D01*
X134069270Y-49382991D01*
X133991928Y-49196272D01*
X133952500Y-48998053D01*
X133952500Y-48795947D01*
X133991928Y-48597728D01*
X134069270Y-48411009D01*
X134069271Y-48411007D01*
X134181554Y-48242963D01*
X134324463Y-48100054D01*
X134492507Y-47987771D01*
X134492509Y-47987770D01*
X134679228Y-47910428D01*
X134877447Y-47871000D01*
X135079553Y-47871000D01*
X135277772Y-47910428D01*
G37*
G36*
X145277772Y-47910428D02*
G01*
X145464491Y-47987770D01*
X145464493Y-47987771D01*
X145632537Y-48100054D01*
X145775446Y-48242963D01*
X145887729Y-48411007D01*
X145887730Y-48411009D01*
X145965072Y-48597728D01*
X146004500Y-48795947D01*
X146004500Y-48998053D01*
X145965072Y-49196272D01*
X145887730Y-49382991D01*
X145887729Y-49382993D01*
X145775446Y-49551037D01*
X145632537Y-49693946D01*
X145464493Y-49806229D01*
X145464492Y-49806230D01*
X145464491Y-49806230D01*
X145277772Y-49883572D01*
X145079553Y-49923000D01*
X144877447Y-49923000D01*
X144679228Y-49883572D01*
X144492509Y-49806230D01*
X144492508Y-49806230D01*
X144492507Y-49806229D01*
X144324463Y-49693946D01*
X144181554Y-49551037D01*
X144069271Y-49382993D01*
X144069270Y-49382991D01*
X143991928Y-49196272D01*
X143952500Y-48998053D01*
X143952500Y-48795947D01*
X143991928Y-48597728D01*
X144069270Y-48411009D01*
X144069271Y-48411007D01*
X144181554Y-48242963D01*
X144324463Y-48100054D01*
X144492507Y-47987771D01*
X144492509Y-47987770D01*
X144679228Y-47910428D01*
X144877447Y-47871000D01*
X145079553Y-47871000D01*
X145277772Y-47910428D01*
G37*
G36*
X171536272Y-47910428D02*
G01*
X171722991Y-47987770D01*
X171722993Y-47987771D01*
X171891037Y-48100054D01*
X172033946Y-48242963D01*
X172146229Y-48411007D01*
X172146230Y-48411009D01*
X172223572Y-48597728D01*
X172263000Y-48795947D01*
X172263000Y-48998053D01*
X172223572Y-49196272D01*
X172146230Y-49382991D01*
X172146229Y-49382993D01*
X172033946Y-49551037D01*
X171891037Y-49693946D01*
X171722993Y-49806229D01*
X171722992Y-49806230D01*
X171722991Y-49806230D01*
X171536272Y-49883572D01*
X171338053Y-49923000D01*
X171135947Y-49923000D01*
X170937728Y-49883572D01*
X170751009Y-49806230D01*
X170751008Y-49806230D01*
X170751007Y-49806229D01*
X170582963Y-49693946D01*
X170440054Y-49551037D01*
X170327771Y-49382993D01*
X170327770Y-49382991D01*
X170250428Y-49196272D01*
X170211000Y-48998053D01*
X170211000Y-48795947D01*
X170250428Y-48597728D01*
X170327770Y-48411009D01*
X170327771Y-48411007D01*
X170440054Y-48242963D01*
X170582963Y-48100054D01*
X170751007Y-47987771D01*
X170751009Y-47987770D01*
X170937728Y-47910428D01*
X171135947Y-47871000D01*
X171338053Y-47871000D01*
X171536272Y-47910428D01*
G37*
G36*
X181536272Y-47910428D02*
G01*
X181722991Y-47987770D01*
X181722993Y-47987771D01*
X181891037Y-48100054D01*
X182033946Y-48242963D01*
X182146229Y-48411007D01*
X182146230Y-48411009D01*
X182223572Y-48597728D01*
X182263000Y-48795947D01*
X182263000Y-48998053D01*
X182223572Y-49196272D01*
X182146230Y-49382991D01*
X182146229Y-49382993D01*
X182033946Y-49551037D01*
X181891037Y-49693946D01*
X181722993Y-49806229D01*
X181722992Y-49806230D01*
X181722991Y-49806230D01*
X181536272Y-49883572D01*
X181338053Y-49923000D01*
X181135947Y-49923000D01*
X180937728Y-49883572D01*
X180751009Y-49806230D01*
X180751008Y-49806230D01*
X180751007Y-49806229D01*
X180582963Y-49693946D01*
X180440054Y-49551037D01*
X180327771Y-49382993D01*
X180327770Y-49382991D01*
X180250428Y-49196272D01*
X180211000Y-48998053D01*
X180211000Y-48795947D01*
X180250428Y-48597728D01*
X180327770Y-48411009D01*
X180327771Y-48411007D01*
X180440054Y-48242963D01*
X180582963Y-48100054D01*
X180751007Y-47987771D01*
X180751009Y-47987770D01*
X180937728Y-47910428D01*
X181135947Y-47871000D01*
X181338053Y-47871000D01*
X181536272Y-47910428D01*
G37*
G36*
X169036272Y-45410428D02*
G01*
X169222991Y-45487770D01*
X169222993Y-45487771D01*
X169391037Y-45600054D01*
X169533946Y-45742963D01*
X169646229Y-45911007D01*
X169646230Y-45911009D01*
X169723572Y-46097728D01*
X169763000Y-46295947D01*
X169763000Y-46498053D01*
X169723572Y-46696272D01*
X169646230Y-46882991D01*
X169646229Y-46882993D01*
X169533946Y-47051037D01*
X169391037Y-47193946D01*
X169222993Y-47306229D01*
X169222992Y-47306230D01*
X169222991Y-47306230D01*
X169036272Y-47383572D01*
X168838053Y-47423000D01*
X168635947Y-47423000D01*
X168437728Y-47383572D01*
X168251009Y-47306230D01*
X168251008Y-47306230D01*
X168251007Y-47306229D01*
X168082963Y-47193946D01*
X167940054Y-47051037D01*
X167827771Y-46882993D01*
X167827770Y-46882991D01*
X167750428Y-46696272D01*
X167711000Y-46498053D01*
X167711000Y-46295947D01*
X167750428Y-46097728D01*
X167827770Y-45911009D01*
X167827771Y-45911007D01*
X167940054Y-45742963D01*
X168082963Y-45600054D01*
X168251007Y-45487771D01*
X168251009Y-45487770D01*
X168437728Y-45410428D01*
X168635947Y-45371000D01*
X168838053Y-45371000D01*
X169036272Y-45410428D01*
G37*
G36*
X140277772Y-45410428D02*
G01*
X140464491Y-45487770D01*
X140464493Y-45487771D01*
X140632537Y-45600054D01*
X140775446Y-45742963D01*
X140887729Y-45911007D01*
X140887730Y-45911009D01*
X140965072Y-46097728D01*
X141004500Y-46295947D01*
X141004500Y-46498053D01*
X140965072Y-46696272D01*
X140887730Y-46882991D01*
X140887729Y-46882993D01*
X140775446Y-47051037D01*
X140632537Y-47193946D01*
X140464493Y-47306229D01*
X140464492Y-47306230D01*
X140464491Y-47306230D01*
X140277772Y-47383572D01*
X140079553Y-47423000D01*
X139877447Y-47423000D01*
X139679228Y-47383572D01*
X139492509Y-47306230D01*
X139492508Y-47306230D01*
X139492507Y-47306229D01*
X139324463Y-47193946D01*
X139181554Y-47051037D01*
X139069271Y-46882993D01*
X139069270Y-46882991D01*
X138991928Y-46696272D01*
X138952500Y-46498053D01*
X138952500Y-46295947D01*
X138991928Y-46097728D01*
X139069270Y-45911009D01*
X139069271Y-45911007D01*
X139181554Y-45742963D01*
X139324463Y-45600054D01*
X139492507Y-45487771D01*
X139492509Y-45487770D01*
X139679228Y-45410428D01*
X139877447Y-45371000D01*
X140079553Y-45371000D01*
X140277772Y-45410428D01*
G37*
G36*
X132777772Y-45410428D02*
G01*
X132964491Y-45487770D01*
X132964493Y-45487771D01*
X133132537Y-45600054D01*
X133275446Y-45742963D01*
X133387729Y-45911007D01*
X133387730Y-45911009D01*
X133465072Y-46097728D01*
X133504500Y-46295947D01*
X133504500Y-46498053D01*
X133465072Y-46696272D01*
X133387730Y-46882991D01*
X133387729Y-46882993D01*
X133275446Y-47051037D01*
X133132537Y-47193946D01*
X132964493Y-47306229D01*
X132964492Y-47306230D01*
X132964491Y-47306230D01*
X132777772Y-47383572D01*
X132579553Y-47423000D01*
X132377447Y-47423000D01*
X132179228Y-47383572D01*
X131992509Y-47306230D01*
X131992508Y-47306230D01*
X131992507Y-47306229D01*
X131824463Y-47193946D01*
X131681554Y-47051037D01*
X131569271Y-46882993D01*
X131569270Y-46882991D01*
X131491928Y-46696272D01*
X131452500Y-46498053D01*
X131452500Y-46295947D01*
X131491928Y-46097728D01*
X131569270Y-45911009D01*
X131569271Y-45911007D01*
X131681554Y-45742963D01*
X131824463Y-45600054D01*
X131992507Y-45487771D01*
X131992509Y-45487770D01*
X132179228Y-45410428D01*
X132377447Y-45371000D01*
X132579553Y-45371000D01*
X132777772Y-45410428D01*
G37*
G36*
X184036272Y-45410428D02*
G01*
X184222991Y-45487770D01*
X184222993Y-45487771D01*
X184391037Y-45600054D01*
X184533946Y-45742963D01*
X184646229Y-45911007D01*
X184646230Y-45911009D01*
X184723572Y-46097728D01*
X184763000Y-46295947D01*
X184763000Y-46498053D01*
X184723572Y-46696272D01*
X184646230Y-46882991D01*
X184646229Y-46882993D01*
X184533946Y-47051037D01*
X184391037Y-47193946D01*
X184222993Y-47306229D01*
X184222992Y-47306230D01*
X184222991Y-47306230D01*
X184036272Y-47383572D01*
X183838053Y-47423000D01*
X183635947Y-47423000D01*
X183437728Y-47383572D01*
X183251009Y-47306230D01*
X183251008Y-47306230D01*
X183251007Y-47306229D01*
X183082963Y-47193946D01*
X182940054Y-47051037D01*
X182827771Y-46882993D01*
X182827770Y-46882991D01*
X182750428Y-46696272D01*
X182711000Y-46498053D01*
X182711000Y-46295947D01*
X182750428Y-46097728D01*
X182827770Y-45911009D01*
X182827771Y-45911007D01*
X182940054Y-45742963D01*
X183082963Y-45600054D01*
X183251007Y-45487771D01*
X183251009Y-45487770D01*
X183437728Y-45410428D01*
X183635947Y-45371000D01*
X183838053Y-45371000D01*
X184036272Y-45410428D01*
G37*
G36*
X147777772Y-45410428D02*
G01*
X147964491Y-45487770D01*
X147964493Y-45487771D01*
X148132537Y-45600054D01*
X148275446Y-45742963D01*
X148387729Y-45911007D01*
X148387730Y-45911009D01*
X148465072Y-46097728D01*
X148504500Y-46295947D01*
X148504500Y-46498053D01*
X148465072Y-46696272D01*
X148387730Y-46882991D01*
X148387729Y-46882993D01*
X148275446Y-47051037D01*
X148132537Y-47193946D01*
X147964493Y-47306229D01*
X147964492Y-47306230D01*
X147964491Y-47306230D01*
X147777772Y-47383572D01*
X147579553Y-47423000D01*
X147377447Y-47423000D01*
X147179228Y-47383572D01*
X146992509Y-47306230D01*
X146992508Y-47306230D01*
X146992507Y-47306229D01*
X146824463Y-47193946D01*
X146681554Y-47051037D01*
X146569271Y-46882993D01*
X146569270Y-46882991D01*
X146491928Y-46696272D01*
X146452500Y-46498053D01*
X146452500Y-46295947D01*
X146491928Y-46097728D01*
X146569270Y-45911009D01*
X146569271Y-45911007D01*
X146681554Y-45742963D01*
X146824463Y-45600054D01*
X146992507Y-45487771D01*
X146992509Y-45487770D01*
X147179228Y-45410428D01*
X147377447Y-45371000D01*
X147579553Y-45371000D01*
X147777772Y-45410428D01*
G37*
G36*
X176536272Y-45410428D02*
G01*
X176722991Y-45487770D01*
X176722993Y-45487771D01*
X176891037Y-45600054D01*
X177033946Y-45742963D01*
X177146229Y-45911007D01*
X177146230Y-45911009D01*
X177223572Y-46097728D01*
X177263000Y-46295947D01*
X177263000Y-46498053D01*
X177223572Y-46696272D01*
X177146230Y-46882991D01*
X177146229Y-46882993D01*
X177033946Y-47051037D01*
X176891037Y-47193946D01*
X176722993Y-47306229D01*
X176722992Y-47306230D01*
X176722991Y-47306230D01*
X176536272Y-47383572D01*
X176338053Y-47423000D01*
X176135947Y-47423000D01*
X175937728Y-47383572D01*
X175751009Y-47306230D01*
X175751008Y-47306230D01*
X175751007Y-47306229D01*
X175582963Y-47193946D01*
X175440054Y-47051037D01*
X175327771Y-46882993D01*
X175327770Y-46882991D01*
X175250428Y-46696272D01*
X175211000Y-46498053D01*
X175211000Y-46295947D01*
X175250428Y-46097728D01*
X175327770Y-45911009D01*
X175327771Y-45911007D01*
X175440054Y-45742963D01*
X175582963Y-45600054D01*
X175751007Y-45487771D01*
X175751009Y-45487770D01*
X175937728Y-45410428D01*
X176135947Y-45371000D01*
X176338053Y-45371000D01*
X176536272Y-45410428D01*
G37*
G36*
X128987500Y-47381000D02*
G01*
X124885500Y-47381000D01*
X124885500Y-43279000D01*
X128987500Y-43279000D01*
X128987500Y-47381000D01*
G37*
G36*
X194892512Y-43396927D02*
G01*
X195041812Y-43426624D01*
X195205784Y-43494544D01*
X195353354Y-43593147D01*
X195478853Y-43718646D01*
X195577456Y-43866216D01*
X195645376Y-44030188D01*
X195680000Y-44204259D01*
X195680000Y-44381741D01*
X195645376Y-44555812D01*
X195577456Y-44719784D01*
X195478853Y-44867354D01*
X195353354Y-44992853D01*
X195205784Y-45091456D01*
X195041812Y-45159376D01*
X194892512Y-45189073D01*
X194867742Y-45194000D01*
X194690258Y-45194000D01*
X194665488Y-45189073D01*
X194516188Y-45159376D01*
X194352216Y-45091456D01*
X194204646Y-44992853D01*
X194079147Y-44867354D01*
X193980544Y-44719784D01*
X193912624Y-44555812D01*
X193878000Y-44381741D01*
X193878000Y-44204259D01*
X193912624Y-44030188D01*
X193980544Y-43866216D01*
X194079147Y-43718646D01*
X194204646Y-43593147D01*
X194352216Y-43494544D01*
X194516188Y-43426624D01*
X194665488Y-43396927D01*
X194690258Y-43392000D01*
X194867742Y-43392000D01*
X194892512Y-43396927D01*
G37*
G36*
X157594055Y-40854171D02*
G01*
X157713257Y-40903546D01*
X157713259Y-40903547D01*
X157820538Y-40975228D01*
X157911772Y-41066462D01*
X157983453Y-41173741D01*
X157983454Y-41173743D01*
X158032829Y-41292945D01*
X158058000Y-41419487D01*
X158058000Y-41548513D01*
X158032829Y-41675055D01*
X157996855Y-41761903D01*
X157983453Y-41794259D01*
X157946453Y-41849634D01*
X157934904Y-41871241D01*
X157927791Y-41894690D01*
X157925389Y-41919076D01*
X157927791Y-41943462D01*
X157934904Y-41966911D01*
X157946455Y-41988522D01*
X157962000Y-42007464D01*
X157980942Y-42023009D01*
X158002553Y-42034560D01*
X158026002Y-42041673D01*
X158050388Y-42044075D01*
X158074774Y-42041673D01*
X158138487Y-42029000D01*
X158267513Y-42029000D01*
X158331226Y-42041673D01*
X158355613Y-42044075D01*
X158379999Y-42041673D01*
X158403448Y-42034560D01*
X158425058Y-42023009D01*
X158444000Y-42007463D01*
X158459545Y-41988521D01*
X158471096Y-41966911D01*
X158478209Y-41943462D01*
X158480611Y-41919075D01*
X158478209Y-41894689D01*
X158471096Y-41871240D01*
X158459547Y-41849634D01*
X158422547Y-41794259D01*
X158409145Y-41761903D01*
X158373171Y-41675055D01*
X158348000Y-41548513D01*
X158348000Y-41419487D01*
X158373171Y-41292945D01*
X158422546Y-41173743D01*
X158422547Y-41173741D01*
X158494228Y-41066462D01*
X158585462Y-40975228D01*
X158692741Y-40903547D01*
X158692743Y-40903546D01*
X158811945Y-40854171D01*
X158938487Y-40829000D01*
X159067513Y-40829000D01*
X159194055Y-40854171D01*
X159313257Y-40903546D01*
X159313259Y-40903547D01*
X159420538Y-40975228D01*
X159511772Y-41066462D01*
X159583453Y-41173741D01*
X159583454Y-41173743D01*
X159632829Y-41292945D01*
X159658000Y-41419487D01*
X159658000Y-41548513D01*
X159632829Y-41675055D01*
X159596855Y-41761903D01*
X159583453Y-41794259D01*
X159546453Y-41849634D01*
X159534904Y-41871241D01*
X159527791Y-41894690D01*
X159525389Y-41919076D01*
X159527791Y-41943462D01*
X159534904Y-41966911D01*
X159546455Y-41988522D01*
X159562000Y-42007464D01*
X159580942Y-42023009D01*
X159602553Y-42034560D01*
X159626002Y-42041673D01*
X159650388Y-42044075D01*
X159674774Y-42041673D01*
X159738487Y-42029000D01*
X159867513Y-42029000D01*
X159994055Y-42054171D01*
X160113257Y-42103546D01*
X160113259Y-42103547D01*
X160220538Y-42175228D01*
X160311772Y-42266462D01*
X160380095Y-42368716D01*
X160383454Y-42373743D01*
X160432829Y-42492945D01*
X160458000Y-42619487D01*
X160458000Y-42748513D01*
X160432829Y-42875055D01*
X160383454Y-42994257D01*
X160383453Y-42994259D01*
X160311772Y-43101538D01*
X160220538Y-43192772D01*
X160113259Y-43264453D01*
X160113258Y-43264454D01*
X160113257Y-43264454D01*
X159994055Y-43313829D01*
X159867513Y-43339000D01*
X159738487Y-43339000D01*
X159611945Y-43313829D01*
X159492743Y-43264454D01*
X159492742Y-43264454D01*
X159492741Y-43264453D01*
X159385462Y-43192772D01*
X159294228Y-43101538D01*
X159222547Y-42994259D01*
X159222546Y-42994257D01*
X159173171Y-42875055D01*
X159148000Y-42748513D01*
X159148000Y-42619487D01*
X159173171Y-42492945D01*
X159222546Y-42373743D01*
X159225905Y-42368716D01*
X159259547Y-42318366D01*
X159271096Y-42296759D01*
X159278209Y-42273310D01*
X159280611Y-42248924D01*
X159278209Y-42224538D01*
X159271096Y-42201089D01*
X159259545Y-42179478D01*
X159244000Y-42160536D01*
X159225058Y-42144991D01*
X159203447Y-42133440D01*
X159179998Y-42126327D01*
X159155612Y-42123925D01*
X159131226Y-42126327D01*
X159067513Y-42139000D01*
X158938487Y-42139000D01*
X158874774Y-42126327D01*
X158850387Y-42123925D01*
X158826001Y-42126327D01*
X158802552Y-42133440D01*
X158780942Y-42144991D01*
X158762000Y-42160537D01*
X158746455Y-42179479D01*
X158734904Y-42201089D01*
X158727791Y-42224538D01*
X158725389Y-42248925D01*
X158727791Y-42273311D01*
X158734904Y-42296760D01*
X158746453Y-42318366D01*
X158780095Y-42368716D01*
X158783454Y-42373743D01*
X158832829Y-42492945D01*
X158858000Y-42619487D01*
X158858000Y-42748513D01*
X158832829Y-42875055D01*
X158783454Y-42994257D01*
X158783453Y-42994259D01*
X158711772Y-43101538D01*
X158620538Y-43192772D01*
X158513259Y-43264453D01*
X158513258Y-43264454D01*
X158513257Y-43264454D01*
X158394055Y-43313829D01*
X158267513Y-43339000D01*
X158138487Y-43339000D01*
X158011945Y-43313829D01*
X157892743Y-43264454D01*
X157892742Y-43264454D01*
X157892741Y-43264453D01*
X157785462Y-43192772D01*
X157694228Y-43101538D01*
X157622547Y-42994259D01*
X157622546Y-42994257D01*
X157573171Y-42875055D01*
X157548000Y-42748513D01*
X157548000Y-42619487D01*
X157573171Y-42492945D01*
X157622546Y-42373743D01*
X157625905Y-42368716D01*
X157659547Y-42318366D01*
X157671096Y-42296759D01*
X157678209Y-42273310D01*
X157680611Y-42248924D01*
X157678209Y-42224538D01*
X157671096Y-42201089D01*
X157659545Y-42179478D01*
X157644000Y-42160536D01*
X157625058Y-42144991D01*
X157603447Y-42133440D01*
X157579998Y-42126327D01*
X157555612Y-42123925D01*
X157531226Y-42126327D01*
X157467513Y-42139000D01*
X157338487Y-42139000D01*
X157274774Y-42126327D01*
X157250387Y-42123925D01*
X157226001Y-42126327D01*
X157202552Y-42133440D01*
X157180942Y-42144991D01*
X157162000Y-42160537D01*
X157146455Y-42179479D01*
X157134904Y-42201089D01*
X157127791Y-42224538D01*
X157125389Y-42248925D01*
X157127791Y-42273311D01*
X157134904Y-42296760D01*
X157146453Y-42318366D01*
X157180095Y-42368716D01*
X157183454Y-42373743D01*
X157232829Y-42492945D01*
X157258000Y-42619487D01*
X157258000Y-42748513D01*
X157232829Y-42875055D01*
X157183454Y-42994257D01*
X157183453Y-42994259D01*
X157111772Y-43101538D01*
X157020538Y-43192772D01*
X156913259Y-43264453D01*
X156913258Y-43264454D01*
X156913257Y-43264454D01*
X156794055Y-43313829D01*
X156667513Y-43339000D01*
X156538487Y-43339000D01*
X156411945Y-43313829D01*
X156292743Y-43264454D01*
X156292742Y-43264454D01*
X156292741Y-43264453D01*
X156185462Y-43192772D01*
X156094228Y-43101538D01*
X156022547Y-42994259D01*
X156022546Y-42994257D01*
X155973171Y-42875055D01*
X155948000Y-42748513D01*
X155948000Y-42619487D01*
X155973171Y-42492945D01*
X156022546Y-42373743D01*
X156025905Y-42368716D01*
X156094228Y-42266462D01*
X156185462Y-42175228D01*
X156292741Y-42103547D01*
X156292743Y-42103546D01*
X156411945Y-42054171D01*
X156538487Y-42029000D01*
X156667513Y-42029000D01*
X156731226Y-42041673D01*
X156755613Y-42044075D01*
X156779999Y-42041673D01*
X156803448Y-42034560D01*
X156825058Y-42023009D01*
X156844000Y-42007463D01*
X156859545Y-41988521D01*
X156871096Y-41966911D01*
X156878209Y-41943462D01*
X156880611Y-41919075D01*
X156878209Y-41894689D01*
X156871096Y-41871240D01*
X156859547Y-41849634D01*
X156822547Y-41794259D01*
X156809145Y-41761903D01*
X156773171Y-41675055D01*
X156748000Y-41548513D01*
X156748000Y-41419487D01*
X156773171Y-41292945D01*
X156822546Y-41173743D01*
X156822547Y-41173741D01*
X156894228Y-41066462D01*
X156985462Y-40975228D01*
X157092741Y-40903547D01*
X157092743Y-40903546D01*
X157211945Y-40854171D01*
X157338487Y-40829000D01*
X157467513Y-40829000D01*
X157594055Y-40854171D01*
G37*
G36*
X169101903Y-40194075D02*
G01*
X169329571Y-40288378D01*
X169534466Y-40425285D01*
X169708715Y-40599534D01*
X169708716Y-40599536D01*
X169845623Y-40804431D01*
X169939925Y-41032097D01*
X169988000Y-41273786D01*
X169988000Y-41520214D01*
X169939925Y-41761903D01*
X169882087Y-41901538D01*
X169845622Y-41989571D01*
X169708715Y-42194466D01*
X169534466Y-42368715D01*
X169329571Y-42505622D01*
X169329570Y-42505623D01*
X169329569Y-42505623D01*
X169101903Y-42599925D01*
X168860214Y-42648000D01*
X168613786Y-42648000D01*
X168372097Y-42599925D01*
X168144431Y-42505623D01*
X168144430Y-42505623D01*
X168144429Y-42505622D01*
X167939534Y-42368715D01*
X167765285Y-42194466D01*
X167628378Y-41989571D01*
X167591914Y-41901538D01*
X167534075Y-41761903D01*
X167486000Y-41520214D01*
X167486000Y-41273786D01*
X167534075Y-41032097D01*
X167628377Y-40804431D01*
X167765284Y-40599536D01*
X167765285Y-40599534D01*
X167939534Y-40425285D01*
X168144429Y-40288378D01*
X168372097Y-40194075D01*
X168613786Y-40146000D01*
X168860214Y-40146000D01*
X169101903Y-40194075D01*
G37*
G36*
X184101903Y-40194075D02*
G01*
X184329571Y-40288378D01*
X184534466Y-40425285D01*
X184708715Y-40599534D01*
X184708716Y-40599536D01*
X184845623Y-40804431D01*
X184939925Y-41032097D01*
X184988000Y-41273786D01*
X184988000Y-41520214D01*
X184939925Y-41761903D01*
X184882087Y-41901538D01*
X184845622Y-41989571D01*
X184708715Y-42194466D01*
X184534466Y-42368715D01*
X184329571Y-42505622D01*
X184329570Y-42505623D01*
X184329569Y-42505623D01*
X184101903Y-42599925D01*
X183860214Y-42648000D01*
X183613786Y-42648000D01*
X183372097Y-42599925D01*
X183144431Y-42505623D01*
X183144430Y-42505623D01*
X183144429Y-42505622D01*
X182939534Y-42368715D01*
X182765285Y-42194466D01*
X182628378Y-41989571D01*
X182591914Y-41901538D01*
X182534075Y-41761903D01*
X182486000Y-41520214D01*
X182486000Y-41273786D01*
X182534075Y-41032097D01*
X182628377Y-40804431D01*
X182765284Y-40599536D01*
X182765285Y-40599534D01*
X182939534Y-40425285D01*
X183144429Y-40288378D01*
X183372097Y-40194075D01*
X183613786Y-40146000D01*
X183860214Y-40146000D01*
X184101903Y-40194075D01*
G37*
G36*
X147843403Y-40194075D02*
G01*
X148071071Y-40288378D01*
X148275966Y-40425285D01*
X148450215Y-40599534D01*
X148450216Y-40599536D01*
X148587123Y-40804431D01*
X148681425Y-41032097D01*
X148729500Y-41273786D01*
X148729500Y-41520214D01*
X148681425Y-41761903D01*
X148623587Y-41901538D01*
X148587122Y-41989571D01*
X148450215Y-42194466D01*
X148275966Y-42368715D01*
X148071071Y-42505622D01*
X148071070Y-42505623D01*
X148071069Y-42505623D01*
X147843403Y-42599925D01*
X147601714Y-42648000D01*
X147355286Y-42648000D01*
X147113597Y-42599925D01*
X146885931Y-42505623D01*
X146885930Y-42505623D01*
X146885929Y-42505622D01*
X146681034Y-42368715D01*
X146506785Y-42194466D01*
X146369878Y-41989571D01*
X146333414Y-41901538D01*
X146275575Y-41761903D01*
X146227500Y-41520214D01*
X146227500Y-41273786D01*
X146275575Y-41032097D01*
X146369877Y-40804431D01*
X146506784Y-40599536D01*
X146506785Y-40599534D01*
X146681034Y-40425285D01*
X146885929Y-40288378D01*
X147113597Y-40194075D01*
X147355286Y-40146000D01*
X147601714Y-40146000D01*
X147843403Y-40194075D01*
G37*
G36*
X132843403Y-40194075D02*
G01*
X133071071Y-40288378D01*
X133275966Y-40425285D01*
X133450215Y-40599534D01*
X133450216Y-40599536D01*
X133587123Y-40804431D01*
X133681425Y-41032097D01*
X133729500Y-41273786D01*
X133729500Y-41520214D01*
X133681425Y-41761903D01*
X133623587Y-41901538D01*
X133587122Y-41989571D01*
X133450215Y-42194466D01*
X133275966Y-42368715D01*
X133071071Y-42505622D01*
X133071070Y-42505623D01*
X133071069Y-42505623D01*
X132843403Y-42599925D01*
X132601714Y-42648000D01*
X132355286Y-42648000D01*
X132113597Y-42599925D01*
X131885931Y-42505623D01*
X131885930Y-42505623D01*
X131885929Y-42505622D01*
X131681034Y-42368715D01*
X131506785Y-42194466D01*
X131369878Y-41989571D01*
X131333414Y-41901538D01*
X131275575Y-41761903D01*
X131227500Y-41520214D01*
X131227500Y-41273786D01*
X131275575Y-41032097D01*
X131369877Y-40804431D01*
X131506784Y-40599536D01*
X131506785Y-40599534D01*
X131681034Y-40425285D01*
X131885929Y-40288378D01*
X132113597Y-40194075D01*
X132355286Y-40146000D01*
X132601714Y-40146000D01*
X132843403Y-40194075D01*
G37*
G36*
X154779798Y-36097727D02*
G01*
X155005410Y-36142604D01*
X155287674Y-36259521D01*
X155541705Y-36429259D01*
X155757741Y-36645295D01*
X155927479Y-36899326D01*
X155990319Y-37051037D01*
X156044396Y-37181591D01*
X156084573Y-37383571D01*
X156104000Y-37481240D01*
X156104000Y-37786760D01*
X156044396Y-38086410D01*
X155927479Y-38368674D01*
X155757741Y-38622705D01*
X155541705Y-38838741D01*
X155287674Y-39008479D01*
X155005410Y-39125396D01*
X154855585Y-39155198D01*
X154705761Y-39185000D01*
X154400239Y-39185000D01*
X154250415Y-39155198D01*
X154100590Y-39125396D01*
X153818326Y-39008479D01*
X153564295Y-38838741D01*
X153348259Y-38622705D01*
X153178521Y-38368674D01*
X153061604Y-38086410D01*
X153002000Y-37786760D01*
X153002000Y-37481240D01*
X153021428Y-37383571D01*
X153061604Y-37181591D01*
X153115681Y-37051037D01*
X153178521Y-36899326D01*
X153348259Y-36645295D01*
X153564295Y-36429259D01*
X153818326Y-36259521D01*
X154100590Y-36142604D01*
X154326202Y-36097727D01*
X154400239Y-36083000D01*
X154705761Y-36083000D01*
X154779798Y-36097727D01*
G37*
G36*
X162079798Y-36097727D02*
G01*
X162305410Y-36142604D01*
X162587674Y-36259521D01*
X162841705Y-36429259D01*
X163057741Y-36645295D01*
X163227479Y-36899326D01*
X163290319Y-37051037D01*
X163344396Y-37181591D01*
X163384573Y-37383571D01*
X163404000Y-37481240D01*
X163404000Y-37786760D01*
X163344396Y-38086410D01*
X163227479Y-38368674D01*
X163057741Y-38622705D01*
X162841705Y-38838741D01*
X162587674Y-39008479D01*
X162305410Y-39125396D01*
X162155585Y-39155198D01*
X162005761Y-39185000D01*
X161700239Y-39185000D01*
X161550415Y-39155198D01*
X161400590Y-39125396D01*
X161118326Y-39008479D01*
X160864295Y-38838741D01*
X160648259Y-38622705D01*
X160478521Y-38368674D01*
X160361604Y-38086410D01*
X160302000Y-37786760D01*
X160302000Y-37481240D01*
X160321428Y-37383571D01*
X160361604Y-37181591D01*
X160415681Y-37051037D01*
X160478521Y-36899326D01*
X160648259Y-36645295D01*
X160864295Y-36429259D01*
X161118326Y-36259521D01*
X161400590Y-36142604D01*
X161626202Y-36097727D01*
X161700239Y-36083000D01*
X162005761Y-36083000D01*
X162079798Y-36097727D01*
G37*
G36*
X194892512Y-36396927D02*
G01*
X195041812Y-36426624D01*
X195205784Y-36494544D01*
X195353354Y-36593147D01*
X195478853Y-36718646D01*
X195577456Y-36866216D01*
X195645376Y-37030188D01*
X195680000Y-37204259D01*
X195680000Y-37381741D01*
X195645376Y-37555812D01*
X195577456Y-37719784D01*
X195478853Y-37867354D01*
X195353354Y-37992853D01*
X195205784Y-38091456D01*
X195041812Y-38159376D01*
X194892512Y-38189073D01*
X194867742Y-38194000D01*
X194690258Y-38194000D01*
X194665488Y-38189073D01*
X194516188Y-38159376D01*
X194352216Y-38091456D01*
X194204646Y-37992853D01*
X194079147Y-37867354D01*
X193980544Y-37719784D01*
X193912624Y-37555812D01*
X193878000Y-37381741D01*
X193878000Y-37204259D01*
X193912624Y-37030188D01*
X193980544Y-36866216D01*
X194079147Y-36718646D01*
X194204646Y-36593147D01*
X194352216Y-36494544D01*
X194516188Y-36426624D01*
X194665488Y-36396927D01*
X194690258Y-36392000D01*
X194867742Y-36392000D01*
X194892512Y-36396927D01*
G37*
G36*
X179036272Y-35410428D02*
G01*
X179222991Y-35487770D01*
X179222993Y-35487771D01*
X179391037Y-35600054D01*
X179533946Y-35742963D01*
X179646229Y-35911007D01*
X179646230Y-35911009D01*
X179723572Y-36097728D01*
X179763000Y-36295947D01*
X179763000Y-36498053D01*
X179723572Y-36696272D01*
X179646230Y-36882991D01*
X179646229Y-36882993D01*
X179533946Y-37051037D01*
X179391037Y-37193946D01*
X179222993Y-37306229D01*
X179222992Y-37306230D01*
X179222991Y-37306230D01*
X179036272Y-37383572D01*
X178838053Y-37423000D01*
X178635947Y-37423000D01*
X178437728Y-37383572D01*
X178251009Y-37306230D01*
X178251008Y-37306230D01*
X178251007Y-37306229D01*
X178082963Y-37193946D01*
X177940054Y-37051037D01*
X177827771Y-36882993D01*
X177827770Y-36882991D01*
X177750428Y-36696272D01*
X177711000Y-36498053D01*
X177711000Y-36295947D01*
X177750428Y-36097728D01*
X177827770Y-35911009D01*
X177827771Y-35911007D01*
X177940054Y-35742963D01*
X178082963Y-35600054D01*
X178251007Y-35487771D01*
X178251009Y-35487770D01*
X178437728Y-35410428D01*
X178635947Y-35371000D01*
X178838053Y-35371000D01*
X179036272Y-35410428D01*
G37*
G36*
X174036272Y-35410428D02*
G01*
X174222991Y-35487770D01*
X174222993Y-35487771D01*
X174391037Y-35600054D01*
X174533946Y-35742963D01*
X174646229Y-35911007D01*
X174646230Y-35911009D01*
X174723572Y-36097728D01*
X174763000Y-36295947D01*
X174763000Y-36498053D01*
X174723572Y-36696272D01*
X174646230Y-36882991D01*
X174646229Y-36882993D01*
X174533946Y-37051037D01*
X174391037Y-37193946D01*
X174222993Y-37306229D01*
X174222992Y-37306230D01*
X174222991Y-37306230D01*
X174036272Y-37383572D01*
X173838053Y-37423000D01*
X173635947Y-37423000D01*
X173437728Y-37383572D01*
X173251009Y-37306230D01*
X173251008Y-37306230D01*
X173251007Y-37306229D01*
X173082963Y-37193946D01*
X172940054Y-37051037D01*
X172827771Y-36882993D01*
X172827770Y-36882991D01*
X172750428Y-36696272D01*
X172711000Y-36498053D01*
X172711000Y-36295947D01*
X172750428Y-36097728D01*
X172827770Y-35911009D01*
X172827771Y-35911007D01*
X172940054Y-35742963D01*
X173082963Y-35600054D01*
X173251007Y-35487771D01*
X173251009Y-35487770D01*
X173437728Y-35410428D01*
X173635947Y-35371000D01*
X173838053Y-35371000D01*
X174036272Y-35410428D01*
G37*
G36*
X142777772Y-35410428D02*
G01*
X142964491Y-35487770D01*
X142964493Y-35487771D01*
X143132537Y-35600054D01*
X143275446Y-35742963D01*
X143387729Y-35911007D01*
X143387730Y-35911009D01*
X143465072Y-36097728D01*
X143504500Y-36295947D01*
X143504500Y-36498053D01*
X143465072Y-36696272D01*
X143387730Y-36882991D01*
X143387729Y-36882993D01*
X143275446Y-37051037D01*
X143132537Y-37193946D01*
X142964493Y-37306229D01*
X142964492Y-37306230D01*
X142964491Y-37306230D01*
X142777772Y-37383572D01*
X142579553Y-37423000D01*
X142377447Y-37423000D01*
X142179228Y-37383572D01*
X141992509Y-37306230D01*
X141992508Y-37306230D01*
X141992507Y-37306229D01*
X141824463Y-37193946D01*
X141681554Y-37051037D01*
X141569271Y-36882993D01*
X141569270Y-36882991D01*
X141491928Y-36696272D01*
X141452500Y-36498053D01*
X141452500Y-36295947D01*
X141491928Y-36097728D01*
X141569270Y-35911009D01*
X141569271Y-35911007D01*
X141681554Y-35742963D01*
X141824463Y-35600054D01*
X141992507Y-35487771D01*
X141992509Y-35487770D01*
X142179228Y-35410428D01*
X142377447Y-35371000D01*
X142579553Y-35371000D01*
X142777772Y-35410428D01*
G37*
G36*
X137777772Y-35410428D02*
G01*
X137964491Y-35487770D01*
X137964493Y-35487771D01*
X138132537Y-35600054D01*
X138275446Y-35742963D01*
X138387729Y-35911007D01*
X138387730Y-35911009D01*
X138465072Y-36097728D01*
X138504500Y-36295947D01*
X138504500Y-36498053D01*
X138465072Y-36696272D01*
X138387730Y-36882991D01*
X138387729Y-36882993D01*
X138275446Y-37051037D01*
X138132537Y-37193946D01*
X137964493Y-37306229D01*
X137964492Y-37306230D01*
X137964491Y-37306230D01*
X137777772Y-37383572D01*
X137579553Y-37423000D01*
X137377447Y-37423000D01*
X137179228Y-37383572D01*
X136992509Y-37306230D01*
X136992508Y-37306230D01*
X136992507Y-37306229D01*
X136824463Y-37193946D01*
X136681554Y-37051037D01*
X136569271Y-36882993D01*
X136569270Y-36882991D01*
X136491928Y-36696272D01*
X136452500Y-36498053D01*
X136452500Y-36295947D01*
X136491928Y-36097728D01*
X136569270Y-35911009D01*
X136569271Y-35911007D01*
X136681554Y-35742963D01*
X136824463Y-35600054D01*
X136992507Y-35487771D01*
X136992509Y-35487770D01*
X137179228Y-35410428D01*
X137377447Y-35371000D01*
X137579553Y-35371000D01*
X137777772Y-35410428D01*
G37*
M02*
