M48
; DRILL file {KiCad (5.1.5)-3} date 05/05/20 14:24:41
; FORMAT={2:4/ absolute / inch / suppress trailing zeros}
; #@! TF.CreationDate,2020-05-05T14:24:41+09:00
; #@! TF.GenerationSoftware,Kicad,Pcbnew,(5.1.5)-3
; #@! TF.FileFunction,Plated,1,2,PTH
FMAT,2
INCH,LZ
T1C0.0157
T2C0.0276
T3C0.0394
T4C0.0402
T5C0.0472
T6C0.0512
T7C0.0630
T8C0.0787
T9C0.1181
%
G90
G05
T1
X04771Y-025417
X0478Y-0394
X0478Y-0399
X0479Y-0305
X0479Y-031
X048275Y-0394
X048275Y-0399
X048375Y-0305
X048375Y-031
X05078Y-02334
X05196Y-046517
X05196Y-046942
X05196Y-047392
X052435Y-046517
X052435Y-046942
X052435Y-047392
X054135Y-051417
X054135Y-052917
X054135Y-054417
X05555Y-0551
X05555Y-0556
X055678Y-05211
X055678Y-05366
X056025Y-0551
X056025Y-0556
X056175Y-058975
X05645Y-02815
X056485Y-050992
X056485Y-051417
X056485Y-051867
X056875Y-055
X056875Y-0555
X05688Y-026446
X05718Y-02352
X057235Y-045892
X057238Y-034587
X057241Y-04431
X05735Y-055
X05735Y-0555
X0579Y-05924
X057914Y-058186
X058Y-0533
X05845Y-0556
X058664Y-034587
X0587Y-05665
X05894Y-03572
X059175Y-0551
X06031Y-051417
X06031Y-052917
X06031Y-054417
X06078Y-02104
X06115Y-017825
X06175Y-05505
X061775Y-05555
X061903Y-052135
X061903Y-053685
X062089Y-024571
X062089Y-025012
X06225Y-02855
X06225Y-05505
X06225Y-05555
X062325Y-0322
X062325Y-0389
X06236Y-02006
X06236Y-02112
X062375Y-058925
X062585Y-050967
X062585Y-051392
X062585Y-051842
X06295Y-0175
X063075Y-055
X063075Y-0555
X063174Y-019377
X063435Y-045867
X063441Y-044385
X06355Y-055
X06355Y-0555
X063772Y-018322
X063925Y-01935
X06405Y-017175
X064089Y-058151
X0641Y-05926
X0642Y-029775
X06425Y-038525
X06425Y-05315
X0645Y-05575
X064625Y-017975
X06475Y-05655
X06525Y-054775
X06536Y-02266
X065475Y-03375
X066285Y-051467
X066285Y-052967
X066285Y-054467
X0663Y-02865
X0663Y-03705
X06751Y-020367
X067828Y-05216
X067828Y-05371
X067875Y-0551
X067875Y-0556
X06792Y-02484
X06794Y-02562
X06794Y-02642
X06794Y-02718
X067975Y-0363
X068275Y-05895
X06835Y-0551
X06835Y-0556
X068635Y-051042
X068635Y-051467
X068635Y-051917
X069025Y-05505
X069025Y-05555
X069385Y-024192
X069385Y-027767
X069385Y-045867
X069391Y-04441
X0695Y-05505
X0695Y-05555
X06988Y-0215
X070064Y-058236
X07008Y-05932
X07035Y-0533
X07055Y-05575
X070625Y-029325
X070725Y-036225
X070725Y-042525
X07085Y-05665
X070925Y-039275
X071225Y-054875
X0714Y-0226
X071835Y-021217
X072772Y-024454
X072797Y-022203
X0728Y-02285
X07322Y-02834
X073435Y-020867
X073463Y-022213
X0735Y-02285
X07355Y-01935
X0737Y-04995
X073875Y-024075
X074225Y-05225
X0744Y-02125
X074575Y-02515
X074873Y-051825
X07504Y-02166
X075047Y-023254
X0753Y-05075
X07585Y-053425
X075996Y-020016
X07622Y-02784
X076245Y-053055
X07632Y-02504
X076375Y-03955
X076375Y-04005
X076425Y-03045
X076425Y-03095
X07685Y-03955
X07685Y-04005
X0769Y-03045
X0769Y-03095
X077275Y-0271
X07732Y-02534
X07738Y-02082
X07775Y-04875
X047519Y-049192
X0487Y-049192
T2
X076245Y-051087
X076245Y-051717
X076245Y-052346
X076718Y-051402
X076718Y-052031
X061655Y-016805
X06197Y-016332
X062285Y-016805
X0626Y-016332
X062915Y-016805
T3
X07831Y-020967
X07831Y-021967
X067285Y-031392
X067285Y-032392
X067285Y-033392
X067285Y-039266
X067285Y-040266
X067285Y-041266
X07831Y-023417
X07831Y-024417
T4
X049335Y-02575
X049335Y-02675
X049335Y-02775
X049335Y-02875
X049335Y-02975
X049335Y-03075
X049335Y-03175
X049335Y-03275
X049335Y-03375
X049335Y-03475
X049335Y-03575
X049335Y-03675
X049335Y-03775
X049335Y-03875
X049335Y-03975
X049335Y-04075
X049335Y-04175
X049335Y-04275
X049335Y-04375
X049335Y-04475
X050335Y-02575
X050335Y-02675
X050335Y-02775
X050335Y-02875
X050335Y-02975
X050335Y-03075
X050335Y-03175
X050335Y-03275
X050335Y-03375
X050335Y-03475
X050335Y-03575
X050335Y-03675
X050335Y-03775
X050335Y-03875
X050335Y-03975
X050335Y-04075
X050335Y-04175
X050335Y-04275
X050335Y-04375
X050335Y-04475
X074138Y-02575
X074138Y-02675
X074138Y-02775
X074138Y-02875
X074138Y-02975
X074138Y-03075
X074138Y-03175
X074138Y-03275
X074138Y-03375
X074138Y-03475
X074138Y-03575
X074138Y-03675
X074138Y-03775
X074138Y-03875
X074138Y-03975
X074138Y-04075
X074138Y-04175
X074138Y-04275
X074138Y-04375
X074138Y-04475
X075138Y-02575
X075138Y-02675
X075138Y-02775
X075138Y-02875
X075138Y-02975
X075138Y-03075
X075138Y-03175
X075138Y-03275
X075138Y-03375
X075138Y-03475
X075138Y-03575
X075138Y-03675
X075138Y-03775
X075138Y-03875
X075138Y-03975
X075138Y-04075
X075138Y-04175
X075138Y-04275
X075138Y-04375
X075138Y-04475
T5
X069385Y-048182
X069385Y-050151
X063409Y-048132
X063409Y-050101
X057235Y-048132
X057235Y-050101
T6
X052157Y-018267
X053141Y-019251
X054125Y-01433
X05511Y-018267
X056094Y-01433
X057078Y-019251
X058062Y-018267
X066432Y-018267
X067416Y-019251
X0684Y-01433
X069385Y-018267
X070369Y-01433
X071353Y-019251
X072337Y-018267
T7
X048122Y-052917
X049304Y-054767
X050485Y-052917
T8
X078234Y-05028
X078234Y-053154
X060848Y-014817
X063722Y-014817
T9
X049975Y-017846
X049975Y-0574
X07445Y-057375
T0
M30
